<?xml version="1.0" encoding="UTF-8"?>
<svg version="1.1" xmlns="http://www.w3.org/2000/svg" width="1536" height="1024">
<path d="M0 0 C506.88 0 1013.76 0 1536 0 C1536 337.92 1536 675.84 1536 1024 C1029.12 1024 522.24 1024 0 1024 C0 686.08 0 348.16 0 0 Z " fill="#0F0F0F" transform="translate(0,0)"/>
<path d="M0 0 C1.95292969 0.00483398 1.95292969 0.00483398 3.9453125 0.00976562 C5.32552149 0.01812159 6.70572982 0.02658654 8.0859375 0.03515625 C9.47395676 0.04017124 10.86197772 0.04473415 12.25 0.04882812 C15.65368882 0.06064649 19.05729189 0.07712191 22.4609375 0.09765625 C26.76992735 9.52518806 26.76992735 9.52518806 28.2109375 14.47265625 C28.45328125 15.28476562 28.695625 16.096875 28.9453125 16.93359375 C29.4609375 19.09765625 29.4609375 19.09765625 29.4609375 22.09765625 C30.49500732 22.07670898 31.52907715 22.05576172 32.59448242 22.03417969 C36.44281078 21.96160337 40.29107904 21.91579308 44.13989258 21.87792969 C45.80340763 21.85785418 47.46685246 21.83058749 49.13012695 21.79589844 C51.5257299 21.74719859 53.92039742 21.72464769 56.31640625 21.70703125 C57.42607002 21.67606354 57.42607002 21.67606354 58.55815125 21.64447021 C62.02193543 21.64297597 64.18524895 21.92805681 67.15795803 23.75682259 C70.04014925 26.68638853 70.08686348 27.95053357 70.08912659 32.00509644 C70.10178055 33.21356232 70.11443451 34.4220282 70.12747192 35.66711426 C70.11615589 37.00317811 70.10432841 38.3392377 70.09204102 39.67529297 C70.09718015 41.0848582 70.10446139 42.49441701 70.11372375 43.90396118 C70.13225078 47.73069308 70.11929029 51.55672892 70.09963346 55.38343191 C70.0832496 59.38983568 70.09205977 63.39619525 70.09715271 67.40261841 C70.10167503 74.13294592 70.08579804 80.86299564 70.05786133 87.59326172 C70.02583463 95.36867484 70.02581451 103.14358622 70.0430761 110.91903484 C70.05895664 118.40273303 70.05219617 125.8862477 70.03513908 133.3699379 C70.02827561 136.55244979 70.02929384 139.73481428 70.03668404 142.91732407 C70.04436183 146.66856318 70.03217283 150.4192336 70.00483513 154.17037582 C69.99469443 156.19927463 70.00411932 158.22824181 70.01416016 160.25714111 C69.89900802 171.24439609 69.89900802 171.24439609 65.4609375 176.09765625 C64.99469971 176.68893311 64.52846191 177.28020996 64.0480957 177.8894043 C63.62359131 178.37449463 63.19908691 178.85958496 62.76171875 179.359375 C62.27936768 179.9152832 61.7970166 180.47119141 61.30004883 181.04394531 C60.79626709 181.61854492 60.29248535 182.19314453 59.7734375 182.78515625 C56.03883806 187.08805193 52.35476332 191.41513503 48.7734375 195.84765625 C45.10150256 200.37726942 41.2571459 204.7141212 37.30859375 209.00390625 C35.32148411 211.16098888 35.32148411 211.16098888 33.4609375 214.09765625 C29.26631194 215.49586477 25.82075324 216.14262796 21.4609375 215.09765625 C17.91416513 212.56860035 15.24302788 209.4293554 12.4609375 206.09765625 C11.76484375 205.26621094 11.06875 204.43476562 10.3515625 203.578125 C8.88532656 201.79349111 7.4314557 199.99864648 5.98828125 198.1953125 C2.99609979 194.52792471 -0.10894618 190.97081618 -3.2265625 187.41015625 C-16.66655258 172.01402968 -16.66655258 172.01402968 -16.65931702 165.71908569 C-16.66137901 164.33924751 -16.66137901 164.33924751 -16.66348267 162.93153381 C-16.65808975 161.41347389 -16.65808975 161.41347389 -16.65258789 159.86474609 C-16.65273392 158.80131485 -16.65287994 157.73788361 -16.6530304 156.64222717 C-16.65233169 153.11432888 -16.64454121 149.58648286 -16.63671875 146.05859375 C-16.63485442 143.61764556 -16.63343059 141.17669699 -16.63243103 138.73574829 C-16.62860701 132.3011777 -16.6187777 125.86662957 -16.60772705 119.43206787 C-16.59751045 112.87007959 -16.59293288 106.30808769 -16.58789062 99.74609375 C-16.57715534 86.86327165 -16.56027165 73.98046514 -16.5390625 61.09765625 C-18.31084048 62.21290979 -20.08104868 63.33065747 -21.85058594 64.44946289 C-22.83653748 65.071642 -23.82248901 65.69382111 -24.83831787 66.33485413 C-43.35117409 78.41837432 -54.16961177 97.37198733 -59.09472656 118.47900391 C-61.54349624 132.91059926 -60.7317308 149.4094421 -55.5390625 163.09765625 C-54.99572266 164.65226562 -54.99572266 164.65226562 -54.44140625 166.23828125 C-49.92845212 178.17083793 -42.42400443 188.05952567 -33.5390625 197.09765625 C-32.85328125 197.79632812 -32.1675 198.495 -31.4609375 199.21484375 C-15.14743121 214.74288492 6.96947045 221.63483807 29.11376953 221.45117188 C36.48691008 221.25323522 43.37220859 220.18307116 50.4609375 218.09765625 C51.61980469 217.75734375 52.77867187 217.41703125 53.97265625 217.06640625 C75.79206257 209.96129704 93.35237986 194.69985692 103.8359375 174.41015625 C113.49684253 154.36238222 116.37231499 130.52292648 109.4609375 109.09765625 C108.00741534 104.97934347 106.34001538 101.03887404 104.4609375 97.09765625 C104.04199219 96.1953125 103.62304688 95.29296875 103.19140625 94.36328125 C98.78327817 85.57243216 92.39420506 78.03092381 85.4609375 71.09765625 C84.07597133 63.31911374 83.12380757 52.38813686 86.37207031 45.03515625 C89.03451172 41.23102767 92.68827451 38.70878507 96.4609375 36.09765625 C97.5071083 35.25277236 98.54368908 34.39587497 99.5703125 33.52734375 C101.43983497 31.94962505 103.32971207 30.39545777 105.24609375 28.875 C107.49392529 27.13729302 107.49392529 27.13729302 109.4609375 25.09765625 C112.7734375 24.66015625 112.7734375 24.66015625 116.4609375 25.09765625 C118.23503878 26.71494788 119.8307081 28.34485321 121.4609375 30.09765625 C122.67762988 31.31198054 123.8993396 32.52129057 125.125 33.7265625 C126.44535789 35.03771471 127.7656695 36.34891352 129.0859375 37.66015625 C129.75367188 38.31951172 130.42140625 38.97886719 131.109375 39.65820312 C131.75390625 40.29951172 132.3984375 40.94082031 133.0625 41.6015625 C133.64338379 42.17720947 134.22426758 42.75285645 134.82275391 43.34594727 C137.77968235 46.50778953 139.33739774 48.35076557 140.05859375 52.7109375 C139.83333093 58.53404875 136.19682699 62.72051197 132.8984375 67.28515625 C131.6544772 69.01904553 130.42336423 70.76224445 129.20703125 72.515625 C128.65716553 73.27641357 128.1072998 74.03720215 127.54077148 74.82104492 C125.77774141 78.53803688 127.11314278 81.08978349 128.40063477 84.82080078 C128.77244873 85.78099121 129.1442627 86.74118164 129.52734375 87.73046875 C130.1315918 89.31021484 130.1315918 89.31021484 130.74804688 90.921875 C131.60144132 93.13050687 132.45561374 95.33883828 133.31054688 97.546875 C133.91286133 99.12275391 133.91286133 99.12275391 134.52734375 100.73046875 C134.89802979 101.68840332 135.26871582 102.64633789 135.65063477 103.63330078 C136.4609375 106.09765625 136.4609375 106.09765625 136.4609375 109.09765625 C137.85892578 109.26201172 137.85892578 109.26201172 139.28515625 109.4296875 C157.64702746 111.71331759 157.64702746 111.71331759 164.4609375 114.09765625 C166.8814961 117.72849415 166.80053151 120.48371921 166.83203125 124.6875 C166.84105972 125.42843399 166.8500882 126.16936798 166.85939026 126.93275452 C166.87388611 128.49866702 166.88277786 130.06464 166.88647461 131.63061523 C166.89838032 134.02366234 166.94757212 136.41413711 166.99804688 138.80664062 C167.00751057 140.32941452 167.01474587 141.85220422 167.01953125 143.375 C167.03906357 144.08865219 167.05859589 144.80230438 167.07872009 145.5375824 C167.04579784 149.17078605 166.74280646 150.78874589 164.26220703 153.50732422 C161.39328874 155.13606169 159.32919809 155.79830149 156.08203125 156.265625 C155.07849609 156.43771484 154.07496094 156.60980469 153.04101562 156.78710938 C150.94508036 157.11928059 148.84593486 157.43178974 146.74414062 157.72460938 C141.2105016 158.57160164 141.2105016 158.57160164 137.00756836 161.91943359 C135.95065514 164.27778341 135.19992583 166.62210466 134.4609375 169.09765625 C133.75324851 170.7977858 133.02758206 172.49053109 132.28515625 174.17578125 C131.57107427 175.89897726 130.85884336 177.62294147 130.1484375 179.34765625 C129.5905957 180.65476562 129.5905957 180.65476562 129.02148438 181.98828125 C128.67537109 182.83390625 128.32925781 183.67953125 127.97265625 184.55078125 C127.65772217 185.30520508 127.34278809 186.05962891 127.01831055 186.83691406 C126.1239547 190.4644809 126.84277791 193.01671534 128.67602539 196.22241211 C129.42227173 197.25700562 129.42227173 197.25700562 130.18359375 198.3125 C130.72177734 199.08142578 131.25996094 199.85035156 131.81445312 200.64257812 C132.95325257 202.23689735 134.09648656 203.82805841 135.24414062 205.41601562 C137.62340995 208.82925313 139.32291455 211.2762749 140.01953125 215.421875 C139.38270795 218.47239221 138.60741264 219.73993881 136.4609375 221.97265625 C135.82414063 222.648125 135.18734375 223.32359375 134.53125 224.01953125 C129.07081862 229.50056803 129.07081862 229.50056803 126.31640625 232.20703125 C124.65448109 233.90044552 123.13873995 235.62879857 121.6484375 237.47265625 C119.07904099 240.55593207 117.43046142 241.91587051 113.4609375 242.66015625 C106.73683298 242.46197212 100.82521602 236.89517865 95.70703125 233.00390625 C94.84207031 232.35421875 93.97710937 231.70453125 93.0859375 231.03515625 C92.31507813 230.42542969 91.54421875 229.81570313 90.75 229.1875 C88.50602889 227.82246039 88.50602889 227.82246039 86.10546875 228.6796875 C85.23277344 229.14761719 84.36007812 229.61554688 83.4609375 230.09765625 C82.37941406 230.67 81.29789063 231.24234375 80.18359375 231.83203125 C78.96270524 232.50238515 77.74269169 233.1743344 76.5234375 233.84765625 C72.57866179 236.01669441 68.67336856 238.07865478 64.47265625 239.7109375 C63.84029053 239.95811523 63.2079248 240.20529297 62.55639648 240.45996094 C60.80884363 241.12300917 59.04919123 241.75390806 57.2890625 242.3828125 C51.10127658 246.13479871 50.14945725 255.39860794 48.44335938 262.04492188 C48.14461914 263.12870117 48.14461914 263.12870117 47.83984375 264.234375 C47.6704126 264.88108154 47.50098145 265.52778809 47.32641602 266.1940918 C46.09015797 268.91316203 44.85853529 270.2909135 42.4609375 272.09765625 C39.82950591 272.50811299 37.62159175 272.68300052 34.9921875 272.6640625 C33.916203 272.67336037 33.916203 272.67336037 32.81848145 272.68284607 C31.30559646 272.68993322 29.7926333 272.68678933 28.27978516 272.67407227 C25.96761424 272.66019632 23.65948592 272.69429317 21.34765625 272.73242188 C19.87499901 272.73337307 18.40233672 272.7315142 16.9296875 272.7265625 C16.24104614 272.73982071 15.55240479 272.75307892 14.84289551 272.76673889 C11.27398475 272.6976555 9.73720142 272.35660367 7.10058594 269.88525391 C5.50593397 267.17415561 4.54961065 264.90066036 3.7578125 261.8671875 C3.5 260.89974609 3.2421875 259.93230469 2.9765625 258.93554688 C2.72390625 257.93716797 2.47125 256.93878906 2.2109375 255.91015625 C1.80875 254.39518555 1.80875 254.39518555 1.3984375 252.84960938 C-0.5390625 245.46041932 -0.5390625 245.46041932 -0.5390625 243.09765625 C-1.1475 242.96230469 -1.7559375 242.82695313 -2.3828125 242.6875 C-8.45964619 241.19510114 -14.1274369 239.15187342 -19.8515625 236.66015625 C-20.52058594 236.37197021 -21.18960938 236.08378418 -21.87890625 235.78686523 C-25.16234568 234.325424 -27.78798519 232.9131895 -30.70703125 230.75 C-33.34361836 228.80604144 -33.34361836 228.80604144 -35.890625 229.49609375 C-40.42819007 232.24004903 -44.79525479 235.22526564 -49.125 238.28515625 C-53.71518928 241.38353402 -56.81004251 242.99039924 -62.5390625 242.09765625 C-64.48046875 241.09375 -64.48046875 241.09375 -66.1015625 239.53515625 C-66.75382812 238.91253906 -67.40609375 238.28992188 -68.078125 237.6484375 C-73.21401746 232.32504421 -78.2692396 226.92993151 -83.26733398 221.47705078 C-84.01062619 220.67083059 -84.76366766 219.87305109 -85.5390625 219.09765625 C-86.70865073 211.84814241 -83.0683538 207.69018506 -78.9765625 201.97265625 C-77.73249165 200.22968109 -76.50137618 198.47736575 -75.28515625 196.71484375 C-74.73529053 195.94769043 -74.1854248 195.18053711 -73.61889648 194.39013672 C-72.24279388 191.4686799 -72.58484024 190.13773971 -73.5390625 187.09765625 C-74.00380929 185.84514604 -74.51088654 184.60738051 -75.0625 183.390625 C-75.3615625 182.72095703 -75.660625 182.05128906 -75.96875 181.36132812 C-76.28070313 180.67619141 -76.59265625 179.99105469 -76.9140625 179.28515625 C-83.5390625 164.61751854 -83.5390625 164.61751854 -83.5390625 160.09765625 C-84.30573242 159.96190186 -85.07240234 159.82614746 -85.86230469 159.6862793 C-89.3400294 159.06390248 -92.8144615 158.42473207 -96.2890625 157.78515625 C-97.495625 157.57181641 -98.7021875 157.35847656 -99.9453125 157.13867188 C-101.68554688 156.81479492 -101.68554688 156.81479492 -103.4609375 156.484375 C-105.06340332 156.19373169 -105.06340332 156.19373169 -106.69824219 155.8972168 C-109.79643508 155.02521768 -111.42084946 154.53690557 -113.5390625 152.09765625 C-113.93277318 149.3589243 -114.07685175 147.02651873 -114.03515625 144.2890625 C-114.03661148 143.52593246 -114.03806671 142.76280243 -114.03956604 141.97654724 C-114.03790704 140.36347637 -114.02634544 138.75038968 -114.00561523 137.13745117 C-113.97670524 134.67232737 -113.98499557 132.20936036 -113.99804688 129.74414062 C-113.99180781 128.17577082 -113.98341554 126.60740781 -113.97265625 125.0390625 C-113.97559189 124.30353653 -113.97852753 123.56801056 -113.98155212 122.81019592 C-113.92590034 119.77957052 -113.70375853 117.43496276 -112.36547852 114.6940918 C-109.94629859 112.57953258 -108.03372626 112.19994088 -104.8828125 111.61328125 C-103.77808594 111.40058594 -102.67335937 111.18789063 -101.53515625 110.96875 C-100.38144531 110.76378906 -99.22773438 110.55882812 -98.0390625 110.34765625 C-96.88535156 110.12722656 -95.73164063 109.90679687 -94.54296875 109.6796875 C-86.12184589 108.09765625 -86.12184589 108.09765625 -82.5390625 108.09765625 C-82.39210937 107.48921875 -82.24515625 106.88078125 -82.09375 106.25390625 C-80.37347231 99.53098195 -78.13941986 93.12132352 -75.60888672 86.66992188 C-73.57472759 81.50709665 -73.57472759 81.50709665 -72.5390625 76.09765625 C-73.57466191 73.82568065 -73.57466191 73.82568065 -75.28515625 71.734375 C-75.87490234 70.92935547 -76.46464844 70.12433594 -77.07226562 69.29492188 C-78.33472899 67.6310599 -79.60032306 65.9695684 -80.86914062 64.31054688 C-85.96674821 57.3339956 -85.96674821 57.3339956 -86.2890625 52.890625 C-85.3363713 48.07258776 -83.56898115 46.03913653 -80.1015625 42.72265625 C-79.00052676 41.60623286 -77.90027466 40.48903612 -76.80078125 39.37109375 C-76.25083496 38.82420898 -75.70088867 38.27732422 -75.13427734 37.71386719 C-72.79345132 35.34223139 -70.61294102 32.85143636 -68.4140625 30.34765625 C-64.02863663 25.36786863 -64.02863663 25.36786863 -59.9765625 24.6328125 C-54.77557726 25.33612755 -51.58897602 28.34401152 -47.5390625 31.53515625 C-40.82068215 37.25679909 -40.82068215 37.25679909 -32.5390625 39.09765625 C-29.42274794 37.78870517 -29.42274794 37.78870517 -26.4765625 35.78515625 C-20.77457247 32.16729128 -20.77457247 32.16729128 -17.95214844 31.33276367 C-15.31506034 30.31506758 -15.31506034 30.31506758 -14.54418945 27.63916016 C-14.37363037 26.62772949 -14.20307129 25.61629883 -14.02734375 24.57421875 C-13.82689453 23.47078125 -13.62644531 22.36734375 -13.41992188 21.23046875 C-13.23236328 20.07289063 -13.04480469 18.9153125 -12.8515625 17.72265625 C-12.45673833 15.44315358 -12.05718762 13.16446325 -11.65234375 10.88671875 C-11.48516846 9.87303223 -11.31799316 8.8593457 -11.14575195 7.81494141 C-10.5729967 5.24964323 -9.92109251 3.32463312 -8.5390625 1.09765625 C-5.66887809 -0.33743596 -3.20362527 -0.01392881 0 0 Z " fill="#6319E3" transform="translate(312.5390625,369.90234375)"/>
<path d="M0 0 C4.3266655 3.05270288 7.57116051 6.5013272 10.796875 10.67578125 C11.786875 11.66578125 11.786875 11.66578125 12.796875 12.67578125 C13.30734375 12.02351563 13.8178125 11.37125 14.34375 10.69921875 C20.70841961 3.04807336 27.91696379 -2.21806278 37.796875 -4.32421875 C51.47182476 -5.46840093 64.01736998 -4.96753473 75.01953125 4.0546875 C82.23699968 10.63765321 86.20469544 17.96498227 87.796875 27.67578125 C87.88322265 30.09747077 87.91458558 32.52135526 87.91040039 34.94458008 C87.91054642 35.65732086 87.91069244 36.37006165 87.9108429 37.10440063 C87.91014932 39.44723615 87.902383 41.78999097 87.89453125 44.1328125 C87.8926651 45.76234392 87.89124213 47.3918759 87.89024353 49.02140808 C87.88643388 53.30066489 87.87661688 57.57988751 87.86553955 61.85913086 C87.85529202 66.22965024 87.85073876 70.60017518 87.84570312 74.97070312 C87.83499318 83.53907815 87.81793545 92.10742544 87.796875 100.67578125 C85.26240627 101.94301562 83.47460546 101.80519453 80.640625 101.80859375 C79.10728516 101.81052734 79.10728516 101.81052734 77.54296875 101.8125 C76.47175781 101.80863281 75.40054688 101.80476562 74.296875 101.80078125 C72.69005859 101.80658203 72.69005859 101.80658203 71.05078125 101.8125 C70.02855469 101.81121094 69.00632812 101.80992187 67.953125 101.80859375 C67.01275391 101.80746582 66.07238281 101.80633789 65.10351562 101.80517578 C62.796875 101.67578125 62.796875 101.67578125 60.796875 100.67578125 C60.79544998 99.88366241 60.79402496 99.09154358 60.79255676 98.27542114 C60.7746514 90.77297402 60.73281702 83.27120675 60.66478443 75.76906013 C60.63064192 71.91301986 60.60542452 68.05737039 60.60131836 64.20117188 C60.5970077 60.47252424 60.56831994 56.74475627 60.52344322 53.01638412 C60.5105557 51.60124735 60.50612922 50.18600481 60.51072121 48.7708168 C60.53232284 40.08389285 59.98945012 32.90128623 54.796875 25.67578125 C48.86178542 20.70968589 43.38014813 20.25322094 35.84375 20.3359375 C31.2150259 20.85221826 28.13690993 22.46451875 24.796875 25.67578125 C20.39182563 31.31373073 19.68625068 37.05745846 19.60742188 44.01074219 C19.59070435 45.26844421 19.57398682 46.52614624 19.5567627 47.82196045 C19.54673973 48.82148869 19.54673973 48.82148869 19.53651428 49.84120941 C19.51538556 51.93387103 19.48837666 54.02638464 19.45983887 56.11895752 C19.3902188 61.31061366 19.33046291 66.50237413 19.27081299 71.69415283 C19.21995535 76.0922125 19.16518864 80.49018805 19.10499573 84.88813019 C19.07836732 86.95385774 19.05759424 89.01959305 19.0369873 91.08538818 C19.02026978 92.33048157 19.00355225 93.57557495 18.98632812 94.85839844 C18.96753601 96.51122833 18.96753601 96.51122833 18.94836426 98.19744873 C18.796875 100.67578125 18.796875 100.67578125 17.796875 101.67578125 C16.04001826 101.77527202 14.27920167 101.80658385 12.51953125 101.80859375 C11.44896484 101.80988281 10.37839844 101.81117188 9.27539062 101.8125 C8.14810547 101.80863281 7.02082031 101.80476562 5.859375 101.80078125 C4.73595703 101.80464844 3.61253906 101.80851563 2.45507812 101.8125 C1.38322266 101.81121094 0.31136719 101.80992187 -0.79296875 101.80859375 C-1.78159912 101.80746582 -2.77022949 101.80633789 -3.78881836 101.80517578 C-6.203125 101.67578125 -6.203125 101.67578125 -8.203125 100.67578125 C-8.20859344 99.46214905 -8.20859344 99.46214905 -8.21417236 98.22399902 C-8.25214546 90.57382982 -8.30910285 82.92414259 -8.38702774 75.27428436 C-8.42642357 71.34201973 -8.45865035 67.40997638 -8.47412109 63.47753906 C-8.48934029 59.6776697 -8.52387737 55.878409 -8.57143402 52.07881165 C-8.58619397 50.63411266 -8.59416291 49.18932675 -8.59500885 47.74455261 C-8.60427873 39.84632925 -8.7303835 33.43964068 -13.203125 26.67578125 C-18.05796631 21.94542305 -22.80604735 20.37488343 -29.515625 20.23828125 C-35.63871753 20.34910645 -39.7796764 21.33949419 -44.203125 25.67578125 C-48.82974283 31.49287384 -49.30569227 37.85548989 -49.40844727 45.04833984 C-49.42839249 46.28917328 -49.44833771 47.53000671 -49.46888733 48.80844116 C-49.48586621 50.14703246 -49.50274521 51.48562502 -49.51953125 52.82421875 C-49.54012678 54.2057046 -49.5611239 55.58718452 -49.58250427 56.96865845 C-49.63745678 60.58859423 -49.68698324 64.20858433 -49.73535156 67.82861328 C-49.78576361 71.52902 -49.84134638 75.22934872 -49.89648438 78.9296875 C-50.00373741 86.1783192 -50.105254 93.42701616 -50.203125 100.67578125 C-52.79866334 101.97355042 -54.71018027 101.8052816 -57.61328125 101.80859375 C-59.22106445 101.81052734 -59.22106445 101.81052734 -60.86132812 101.8125 C-61.98474609 101.80863281 -63.10816406 101.80476562 -64.265625 101.80078125 C-65.95655273 101.80658203 -65.95655273 101.80658203 -67.68164062 101.8125 C-68.75220703 101.81121094 -69.82277344 101.80992187 -70.92578125 101.80859375 C-71.91328369 101.80746582 -72.90078613 101.80633789 -73.91821289 101.80517578 C-76.203125 101.67578125 -76.203125 101.67578125 -77.203125 100.67578125 C-77.30382279 97.51501781 -77.33926523 94.37606098 -77.33251953 91.21484375 C-77.33427185 90.22143982 -77.33602417 89.22803589 -77.33782959 88.20452881 C-77.34225011 84.90326213 -77.33930941 81.60204852 -77.3359375 78.30078125 C-77.33661048 76.01774078 -77.33758046 73.73470038 -77.33883667 71.45166016 C-77.34031391 66.65982381 -77.33815823 61.86800606 -77.33349609 57.07617188 C-77.3277988 50.9186149 -77.33107766 44.76110151 -77.33706856 38.60354614 C-77.34067345 33.88712228 -77.33953591 29.17070884 -77.33694077 24.45428467 C-77.3362713 22.18316645 -77.3371006 19.91204731 -77.33942032 17.64093018 C-77.34194567 14.47283403 -77.3381079 11.30480953 -77.33251953 8.13671875 C-77.33454376 7.18810974 -77.33656799 6.23950073 -77.33865356 5.262146 C-77.31738724 -1.20995651 -77.31738724 -1.20995651 -76.203125 -2.32421875 C-74.42241254 -2.41148098 -72.6382936 -2.43120916 -70.85546875 -2.421875 C-69.77587891 -2.41865234 -68.69628906 -2.41542969 -67.58398438 -2.41210938 C-65.87952148 -2.39954102 -65.87952148 -2.39954102 -64.140625 -2.38671875 C-62.43036133 -2.37995117 -62.43036133 -2.37995117 -60.68554688 -2.37304688 C-57.85802149 -2.36121622 -55.0305986 -2.34473285 -52.203125 -2.32421875 C-51.543125 0.97578125 -50.883125 4.27578125 -50.203125 7.67578125 C-49.06875 6.60328125 -47.934375 5.53078125 -46.765625 4.42578125 C-34.70155491 -6.15974384 -13.93705456 -8.37705939 0 0 Z " fill="#FCFCFC" transform="translate(731.203125,424.32421875)"/>
<path d="M0 0 C6.45112985 5.8869626 11.40313111 14.46479123 12.5546875 23.1875 C12.5546875 25.4975 12.5546875 27.8075 12.5546875 30.1875 C3.6446875 30.1875 -5.2653125 30.1875 -14.4453125 30.1875 C-15.4353125 27.5475 -16.4253125 24.9075 -17.4453125 22.1875 C-18.94663127 20.14960974 -18.94663127 20.14960974 -20.7578125 18.8125 C-21.31082031 18.35101563 -21.86382813 17.88953125 -22.43359375 17.4140625 C-27.46108654 14.34875622 -32.54037837 13.80155575 -38.3203125 13.8125 C-39.02559082 13.81121094 -39.73086914 13.80992187 -40.45751953 13.80859375 C-46.19041179 13.92518597 -49.68135631 15.13856804 -54.4453125 18.1875 C-55.1053125 18.1875 -55.7653125 18.1875 -56.4453125 18.1875 C-56.7546875 18.97125 -57.0640625 19.755 -57.3828125 20.5625 C-58.4453125 23.1875 -58.4453125 23.1875 -59.4453125 25.1875 C-59.57548931 29.83667164 -58.9023301 33.39533617 -56.5703125 37.4375 C-48.81920804 45.43744923 -35.38666051 47.38448732 -24.9909668 50.16430664 C-11.94933478 53.67557623 3.03929531 57.89460725 10.33984375 70.1953125 C15.57180801 80.46134166 17.50799035 90.15269078 14.3671875 101.5625 C10.65541192 112.07919747 3.71463893 120.23849891 -6.1328125 125.5 C-22.56778974 132.98342016 -42.81061482 133.97661931 -60.078125 128.515625 C-75.11357244 122.58517009 -84.19326689 114.88523795 -90.8203125 100.125 C-91.4453125 97.1875 -91.4453125 97.1875 -91.4453125 88.1875 C-82.5353125 88.1875 -73.6253125 88.1875 -64.4453125 88.1875 C-62.4653125 91.8175 -60.4853125 95.4475 -58.4453125 99.1875 C-54.00739277 103.73921255 -48.43669472 106.27590504 -42.10546875 106.5859375 C-40.57291694 106.59380346 -39.04020772 106.58577689 -37.5078125 106.5625 C-36.74791016 106.57410156 -35.98800781 106.58570313 -35.20507812 106.59765625 C-28.39133358 106.56274381 -22.81871875 105.20742021 -17.5078125 100.6875 C-13.83745998 96.23858786 -13.93757059 91.71407545 -14.4453125 86.1875 C-16.34773421 80.95584031 -20.59829399 78.49596395 -25.4453125 76.1875 C-31.24594099 74.17768777 -37.25078072 72.76366501 -43.1953125 71.25 C-72.7896185 63.71313235 -72.7896185 63.71313235 -81.4453125 53.1875 C-87.81439389 42.45622501 -90.04567409 32.63845428 -87.94921875 20.2578125 C-85.72976464 12.20758913 -81.64962703 5.77138307 -75.4453125 0.1875 C-74.7440625 -0.4725 -74.0428125 -1.1325 -73.3203125 -1.8125 C-51.84273409 -16.75342411 -20.8041775 -15.42034882 0 0 Z " fill="#FCFCFC" transform="translate(621.4453125,396.8125)"/>
<path d="M0 0 C7.82710106 6.11563582 12.18511254 14.30139549 13.59716797 24.07617188 C14.33937602 31.06033739 14.20639458 38.07943696 14.1953125 45.09375 C14.19598712 46.60306819 14.19695847 48.11238628 14.19821167 49.6217041 C14.19967757 52.765066 14.1975675 55.90839927 14.19287109 59.05175781 C14.18713496 63.08815498 14.19048412 67.12448621 14.19644356 71.16088104 C14.2000457 74.26799015 14.19891288 77.37508343 14.19631577 80.48219299 C14.19564756 81.97180692 14.19647122 83.46142228 14.19879532 84.95103455 C14.20132037 87.0214321 14.19748523 89.09172004 14.19189453 91.16210938 C14.19109894 92.34075562 14.19030334 93.51940186 14.18948364 94.73376465 C14.0625 97.375 14.0625 97.375 13.0625 98.375 C11.35477642 98.46213831 9.64351351 98.48200007 7.93359375 98.47265625 C6.38188477 98.46782227 6.38188477 98.46782227 4.79882812 98.46289062 C3.71021484 98.45451172 2.62160156 98.44613281 1.5 98.4375 C-0.1387207 98.43073242 -0.1387207 98.43073242 -1.81054688 98.42382812 C-4.51955432 98.4119984 -7.2285338 98.39406231 -9.9375 98.375 C-10.5975 95.075 -11.2575 91.775 -11.9375 88.375 C-12.9275 89.2825 -13.9175 90.19 -14.9375 91.125 C-25.67562163 100.2858925 -38.05131012 101.21546862 -51.62109375 100.5703125 C-62.0559919 99.69047286 -70.23144877 95.46262295 -77.25 87.875 C-82.85084953 79.57744514 -84.08695778 71.25591591 -82.9375 61.375 C-79.98371958 52.45036344 -75.55997095 46.36638916 -67.31640625 41.98046875 C-54.65390438 36.14529193 -41.2213365 36.07958608 -27.5625 36.25 C-26.1328189 36.26006818 -24.70313079 36.26918712 -23.2734375 36.27734375 C-19.82797521 36.2990114 -16.3827854 36.33332057 -12.9375 36.375 C-13.05866254 34.44862847 -13.19102336 32.52295902 -13.328125 30.59765625 C-13.40063477 29.52523682 -13.47314453 28.45281738 -13.54785156 27.34790039 C-14.0596688 23.44288884 -15.27640073 21.25785755 -17.9375 18.375 C-24.07426716 13.92584381 -30.55813096 13.67999017 -37.9375 14.375 C-41.38210896 15.23325274 -42.89945771 16.22741838 -45.9375 18.375 C-47.5875 21.345 -49.2375 24.315 -50.9375 27.375 C-59.1875 27.375 -67.4375 27.375 -75.9375 27.375 C-77.9375 23.375 -77.9375 23.375 -77.5390625 21.1484375 C-72.88144491 9.7093287 -65.93894369 2.01791737 -54.9375 -3.625 C-54.10347656 -4.05941406 -53.26945313 -4.49382812 -52.41015625 -4.94140625 C-36.39689724 -11.69001908 -14.33094197 -9.43931378 0 0 Z " fill="#FCFCFC" transform="translate(920.9375,427.625)"/>
<path d="M0 0 C1.07056641 -0.00128906 2.14113281 -0.00257813 3.24414062 -0.00390625 C4.93506836 0.00189453 4.93506836 0.00189453 6.66015625 0.0078125 C8.3452832 0.00201172 8.3452832 0.00201172 10.06445312 -0.00390625 C11.67223633 -0.00197266 11.67223633 -0.00197266 13.3125 0 C14.79544556 0.00169189 14.79544556 0.00169189 16.30834961 0.00341797 C18.72265625 0.1328125 18.72265625 0.1328125 20.72265625 1.1328125 C21.21765625 38.7528125 21.21765625 38.7528125 21.72265625 77.1328125 C27.45792448 70.82401744 32.96565846 64.69908556 38.29296875 58.1015625 C41.62012973 54.03622111 45.0439332 50.05731762 48.47412109 46.07885742 C48.95316895 45.52302979 49.4322168 44.96720215 49.92578125 44.39453125 C50.40805176 43.85554199 50.89032227 43.31655273 51.38720703 42.76123047 C52.96060865 40.93384388 52.96060865 40.93384388 54.66796875 37.74609375 C56.62155088 35.39690347 57.70346889 35.13595478 60.78320312 34.6315918 C63.9749884 34.49661686 67.13226449 34.47058211 70.32519531 34.5703125 C72.34905527 34.63285573 74.36979885 34.65227938 76.39453125 34.6640625 C86.25866168 34.82348279 86.25866168 34.82348279 89.72265625 37.1328125 C88.3862932 40.08176332 86.90123694 42.22981369 84.66796875 44.56640625 C83.7545874 45.53006104 83.7545874 45.53006104 82.82275391 46.51318359 C82.17097168 47.19203613 81.51918945 47.87088867 80.84765625 48.5703125 C79.48265873 50.00872165 78.11808083 51.44752911 76.75390625 52.88671875 C76.07328125 53.60230957 75.39265625 54.31790039 74.69140625 55.05517578 C71.88523854 58.01654573 69.1120006 61.00743218 66.34765625 64.0078125 C65.86603027 64.53004395 65.3844043 65.05227539 64.88818359 65.59033203 C60.45955997 70.4018075 56.08081002 75.2574031 51.72265625 80.1328125 C55.82783376 86.44283123 60.17216991 92.51277499 64.72265625 98.5078125 C70.50265988 106.16430036 76.22765359 113.85759077 81.890625 121.60107422 C82.42300781 122.32697754 82.95539063 123.05288086 83.50390625 123.80078125 C84.02210937 124.5076709 84.5403125 125.21456055 85.07421875 125.94287109 C87.44123287 129.08743814 89.92485735 132.13724238 92.41992188 135.1809082 C93.72265625 137.1328125 93.72265625 137.1328125 93.72265625 140.1328125 C89.16991998 140.40663538 84.62204704 140.60511557 80.06298828 140.73706055 C78.51624044 140.79208256 76.97005722 140.86694005 75.42529297 140.96264648 C62.67783378 141.73210254 62.67783378 141.73210254 58.12329102 138.0065918 C56.02899175 135.15105104 54.37214788 132.26407184 52.72265625 129.1328125 C51.54255874 127.3478869 50.34370377 125.57519864 49.125 123.81640625 C47.96763015 122.06931034 46.81266831 120.32061677 45.66015625 118.5703125 C41.11515029 111.68378491 36.48670102 104.8700554 31.72265625 98.1328125 C31.00078125 98.8546875 30.27890625 99.5765625 29.53515625 100.3203125 C26.72265625 103.1328125 26.72265625 103.1328125 24.08886719 105.35644531 C21.08091643 108.88579075 21.08465284 110.77817091 21.05078125 115.3671875 C21.0316568 116.38513397 21.0316568 116.38513397 21.012146 117.42364502 C20.9759889 119.57713194 20.97313797 121.72904942 20.97265625 123.8828125 C20.95105364 126.05027429 20.92265119 128.21749982 20.89031982 130.38482666 C20.86445738 132.34073938 20.85612733 134.29686035 20.84863281 136.25292969 C20.72265625 139.1328125 20.72265625 139.1328125 19.72265625 140.1328125 C17.88106602 140.23240871 16.03568658 140.26361661 14.19140625 140.265625 C13.07121094 140.26691406 11.95101562 140.26820313 10.796875 140.26953125 C9.61738281 140.26566406 8.43789063 140.26179687 7.22265625 140.2578125 C5.45341797 140.26361328 5.45341797 140.26361328 3.6484375 140.26953125 C1.96814453 140.26759766 1.96814453 140.26759766 0.25390625 140.265625 C-0.78185547 140.26449707 -1.81761719 140.26336914 -2.88476562 140.26220703 C-5.27734375 140.1328125 -5.27734375 140.1328125 -6.27734375 139.1328125 C-6.37589285 137.35085378 -6.40366475 135.56495502 -6.40432739 133.78027344 C-6.40714722 132.61919067 -6.40996704 131.45810791 -6.41287231 130.26184082 C-6.41084808 128.97660522 -6.40882385 127.69136963 -6.40673828 126.3671875 C-6.40809231 125.00907341 -6.40987225 123.6509597 -6.41204834 122.29284668 C-6.41662252 118.59460049 -6.41483318 114.89638208 -6.41166925 111.19813538 C-6.40914557 107.33619103 -6.41148321 103.47424913 -6.41305542 99.61230469 C-6.41487709 93.12564668 -6.41247087 86.63900004 -6.40771484 80.15234375 C-6.40227223 72.64231327 -6.40403488 65.13230994 -6.40954125 57.62228012 C-6.41407245 51.1857772 -6.4147229 44.74928247 -6.41210258 38.31277847 C-6.41053984 34.46351934 -6.41034595 30.61427298 -6.41363907 26.76501465 C-6.41651788 23.14700544 -6.41454191 19.52903139 -6.40874481 15.911026 C-6.40678166 13.94194589 -6.40977104 11.97286283 -6.41287231 10.00378418 C-6.40864258 8.26216003 -6.40864258 8.26216003 -6.40432739 6.48535156 C-6.40395037 5.46991272 -6.40357334 4.45447388 -6.40318489 3.40826416 C-6.16418208 -0.91336969 -3.76950003 0.00430554 0 0 Z " fill="#FDFDFD" transform="translate(965.27734375,385.8671875)"/>
<path d="M0 0 C9.24 0 18.48 0 28 0 C30.35570007 5.30032515 32.56058688 10.2965454 34.47363281 15.71313477 C34.91378723 16.95374161 35.35394165 18.19434845 35.80743408 19.47254944 C36.27274282 20.79547412 36.73797132 22.11842704 37.203125 23.44140625 C37.69033832 24.81870996 38.17787232 26.19590026 38.66571045 27.57298279 C39.93800417 31.16714304 41.20598557 34.76280947 42.47302246 38.35882568 C43.77104019 42.04028132 45.07320306 45.72027004 46.375 49.40039062 C48.9206865 56.59884487 51.46181128 63.79889814 54 71 C56.02134961 67.96797558 57.01766563 65.3912733 58.19897461 61.95556641 C58.62959702 60.71062408 59.06021942 59.46568176 59.50389099 58.18301392 C59.73165159 57.51815601 59.95941219 56.85329811 60.19407463 56.168293 C60.90915249 54.08169458 61.62978065 51.99708929 62.35194397 49.91293335 C64.14495852 44.73506398 65.92980935 39.55439235 67.71221924 34.37286377 C69.2181353 29.99514541 70.72845138 25.61900047 72.24524117 21.24503708 C72.95363512 19.19647605 73.65545135 17.14573705 74.35716248 15.09487915 C74.79496806 13.83087218 75.2331068 12.56698054 75.67163086 11.30322266 C76.04976425 10.2041861 76.42789764 9.10514954 76.81748962 7.97280884 C77.97777481 5.05587372 79.16942687 2.55154879 81 0 C83.91088867 -0.56762695 83.91088867 -0.56762695 87.41796875 -0.48828125 C88.67158203 -0.47216797 89.92519531 -0.45605469 91.21679688 -0.43945312 C92.52712891 -0.39755859 93.83746094 -0.35566406 95.1875 -0.3125 C96.52274529 -0.28741661 97.85803529 -0.26460348 99.19335938 -0.24414062 C102.46336707 -0.18511522 105.73112333 -0.10281476 109 0 C110.41975136 3.39326905 109.65165069 5.60132805 108.31134033 8.9201355 C108.03844177 9.56266266 107.76554321 10.20518982 107.484375 10.8671875 C107.2019696 11.55700714 106.91956421 12.24682678 106.62860107 12.95755005 C105.67966105 15.26789206 104.71479665 17.57123952 103.75 19.875 C103.07124106 21.51910864 102.39353037 23.16365038 101.71679688 24.80859375 C99.87638722 29.27455659 98.02247051 33.73479986 96.16625977 38.19421387 C94.20175244 42.92042287 92.24954296 47.65170247 90.296875 52.3828125 C87.89213194 58.2082048 85.48676373 64.03332725 83.07592773 69.85620117 C77.93458957 82.27859476 72.84926736 94.72236485 67.8125 107.1875 C60.05267789 126.38442054 60.05267789 126.38442054 56.125 135.75 C55.65090698 136.88538208 55.65090698 136.88538208 55.16723633 138.04370117 C53.12431872 142.87568128 53.12431872 142.87568128 52 144 C50.07332493 144.08748207 48.14348139 144.10697334 46.21484375 144.09765625 C45.04501953 144.09443359 43.87519531 144.09121094 42.66992188 144.08789062 C41.43822266 144.07951172 40.20652344 144.07113281 38.9375 144.0625 C37.08415039 144.05573242 37.08415039 144.05573242 35.19335938 144.04882812 C32.12885883 144.03699608 29.06445279 144.02051173 26 144 C24.39486358 139.21480104 25.91062769 136.10454024 28 131.79296875 C28.64608585 130.38748585 29.291911 128.98188307 29.9375 127.57617188 C30.965162 125.38135844 31.99896421 123.18967988 33.0390625 121.00073242 C34.04254665 118.87622817 35.02204468 116.74181829 36 114.60546875 C36.31453125 113.96248337 36.6290625 113.31949799 36.953125 112.6570282 C39.86167178 106.25807035 38.98761674 101.75904152 36.70336914 95.37768555 C36.15781181 94.1260612 35.60115644 92.87923237 35.03515625 91.63671875 C34.7301973 90.94335922 34.42523834 90.24999969 34.11103821 89.53562927 C33.44987401 88.03474463 32.78410516 86.53588158 32.11419678 85.03887939 C30.28701055 80.95366382 28.49578984 76.8526539 26.69921875 72.75390625 C26.1300473 71.45909332 26.1300473 71.45909332 25.54937744 70.13812256 C21.03700613 59.85129185 16.70370057 49.49012624 12.375 39.125 C11.62250152 37.32770792 10.86997928 35.53042579 10.11743164 33.7331543 C8.71368604 30.37808801 7.31933188 27.01936497 5.93261719 23.65722656 C4.67525437 20.60967194 3.38845521 17.5775691 2.07519531 14.55371094 C1.50043747 13.19996045 0.92588073 11.84612455 0.3515625 10.4921875 C-0.15294434 9.32800293 -0.65745117 8.16381836 -1.17724609 6.96435547 C-2 4 -2 4 0 0 Z " fill="#FCFCFC" transform="translate(1213,421)"/>
<path d="M0 0 C0.92014893 0.00942627 1.84029785 0.01885254 2.78833008 0.02856445 C9.4148436 0.17576818 15.38956938 0.8174963 21.5625 3.375 C22.43003906 3.72691406 23.29757812 4.07882812 24.19140625 4.44140625 C33.18161599 8.50106877 38.54149853 14.07429683 42.69140625 23 C43.76374718 25.92369186 44.03652242 28.29385429 43.5625 31.375 C40.94079633 33.99670367 33.76850671 32.75609497 30.25 32.8125 C28.5184668 32.88114258 28.5184668 32.88114258 26.75195312 32.95117188 C23.57905995 32.99352622 20.68079337 32.96881002 17.5625 32.375 C14.93359375 29.4609375 14.93359375 29.4609375 13.5625 26.375 C8.69054611 23.01103184 3.38975364 22.22647929 -2.4375 22.375 C-5.6478645 22.96445995 -8.6230796 23.69483954 -11.4375 25.375 C-13.3477415 28.24629467 -13.4377092 29.36903782 -13.3125 32.9375 C-12.76444526 36.3248432 -12.76444526 36.3248432 -10.828125 37.96875 C-7.73321588 39.78928478 -4.80871297 40.48965392 -1.3125 41.3125 C-0.61817871 41.48015869 0.07614258 41.64781738 0.79150391 41.82055664 C4.60307956 42.72995395 8.42610785 43.56121378 12.265625 44.34375 C24.58967733 46.87422718 35.13108854 49.33109686 42.5625 60.375 C46.17873041 66.56133703 46.46299856 73.37881889 45.5625 80.375 C42.97471297 90.05524036 38.24872031 96.90439142 29.6953125 102.125 C20.51445803 106.9840782 12.07605142 108.75655384 1.75 108.6875 C0.8748877 108.68258545 -0.00022461 108.6776709 -0.90185547 108.67260742 C-13.4326813 108.44673286 -25.41965345 105.39726975 -34.75 96.625 C-40.62077328 90.30262878 -44.12694819 84.07045073 -44.4375 75.375 C-43.4375 74.375 -43.4375 74.375 -40.93725586 74.26147461 C-39.85323486 74.26671143 -38.76921387 74.27194824 -37.65234375 74.27734375 C-35.89760742 74.28217773 -35.89760742 74.28217773 -34.10742188 74.28710938 C-32.25987305 74.29967773 -32.25987305 74.29967773 -30.375 74.3125 C-28.52165039 74.31926758 -28.52165039 74.31926758 -26.63085938 74.32617188 C-23.56635883 74.33800392 -20.50195279 74.35448827 -17.4375 74.375 C-17.1806543 74.92349609 -16.92380859 75.47199219 -16.65917969 76.03710938 C-16.13952637 77.11702148 -16.13952637 77.11702148 -15.609375 78.21875 C-15.2700293 78.93224609 -14.93068359 79.64574219 -14.58105469 80.38085938 C-13.14463466 82.88570113 -11.50157883 84.47771534 -8.89453125 85.75 C-5.40442974 86.63778417 -1.95696132 86.80664817 1.625 86.875 C2.65222168 86.90303711 2.65222168 86.90303711 3.70019531 86.93164062 C8.77130885 86.86797623 11.67447423 85.56398993 15.5625 82.375 C17.89127362 79.49905164 17.89127362 79.49905164 17.5 75.9375 C16.35470108 71.58536412 15.26706718 70.8130057 11.5625 68.375 C8.16094125 67.17305532 8.16094125 67.17305532 4.375 66.375 C3.68664063 66.21257812 2.99828125 66.05015625 2.2890625 65.8828125 C-1.53140568 64.99114129 -5.36675426 64.17639467 -9.20703125 63.375 C-9.99634033 63.20742188 -10.78564941 63.03984375 -11.59887695 62.8671875 C-13.11203185 62.54872834 -14.62744009 62.24071994 -16.14526367 61.9453125 C-24.80920728 60.13904514 -32.01791857 56.5233593 -37.4375 49.375 C-41.96905007 41.6620077 -42.89404781 33.33908925 -40.77734375 24.671875 C-37.50711128 15.44160846 -31.6231314 9.66550836 -23.35546875 4.69921875 C-15.6345769 1.1953602 -8.44842441 -0.13467036 0 0 Z " fill="#FCFCFC" transform="translate(1107.4375,419.625)"/>
<path d="M0 0 C1.11568359 -0.00128906 2.23136719 -0.00257813 3.38085938 -0.00390625 C5.14333008 0.00189453 5.14333008 0.00189453 6.94140625 0.0078125 C8.11251953 0.00394531 9.28363281 0.00007813 10.49023438 -0.00390625 C12.16569336 -0.00197266 12.16569336 -0.00197266 13.875 0 C14.9055249 0.00112793 15.9360498 0.00225586 16.99780273 0.00341797 C19.50390625 0.1328125 19.50390625 0.1328125 21.50390625 1.1328125 C21.50390625 46.6728125 21.50390625 92.2128125 21.50390625 139.1328125 C18.85562446 140.4569534 16.83710513 140.26238292 13.875 140.265625 C12.19954102 140.26755859 12.19954102 140.26755859 10.49023438 140.26953125 C9.31912109 140.26566406 8.14800781 140.26179687 6.94140625 140.2578125 C5.76642578 140.26167969 4.59144531 140.26554688 3.38085938 140.26953125 C1.70733398 140.26759766 1.70733398 140.26759766 0 140.265625 C-1.02939697 140.26449707 -2.05879395 140.26336914 -3.11938477 140.26220703 C-5.49609375 140.1328125 -5.49609375 140.1328125 -6.49609375 139.1328125 C-6.59464285 137.35085378 -6.62241475 135.56495502 -6.62307739 133.78027344 C-6.62589722 132.61919067 -6.62871704 131.45810791 -6.63162231 130.26184082 C-6.62959808 128.97660522 -6.62757385 127.69136963 -6.62548828 126.3671875 C-6.62684231 125.00907341 -6.62862225 123.6509597 -6.63079834 122.29284668 C-6.63537252 118.59460049 -6.63358318 114.89638208 -6.63041925 111.19813538 C-6.62789557 107.33619103 -6.63023321 103.47424913 -6.63180542 99.61230469 C-6.63362709 93.12564668 -6.63122087 86.63900004 -6.62646484 80.15234375 C-6.62102223 72.64231327 -6.62278488 65.13230994 -6.62829125 57.62228012 C-6.63282245 51.1857772 -6.6334729 44.74928247 -6.63085258 38.31277847 C-6.62928984 34.46351934 -6.62909595 30.61427298 -6.63238907 26.76501465 C-6.63526788 23.14700544 -6.63329191 19.52903139 -6.62749481 15.911026 C-6.62553166 13.94194589 -6.62852104 11.97286283 -6.63162231 10.00378418 C-6.62739258 8.26216003 -6.62739258 8.26216003 -6.62307739 6.48535156 C-6.62270037 5.46991272 -6.62232334 4.45447388 -6.62193489 3.40826416 C-6.37892531 -0.98581993 -3.81451456 0.00417964 0 0 Z " fill="#F9F9F9" transform="translate(1174.49609375,385.8671875)"/>
<path d="M0 0 C1.11858398 0.00326294 1.11858398 0.00326294 2.25976562 0.0065918 C4.5382459 0.00975365 6.81543021 -0.01370955 9.09375 -0.0390625 C10.53645669 -0.04133525 11.97916688 -0.0420391 13.421875 -0.04101562 C15.39800781 -0.04548706 15.39800781 -0.04548706 17.4140625 -0.05004883 C18.44789063 0.07281494 19.48171875 0.19567871 20.546875 0.32226562 C22.98031946 3.97243232 22.80451754 5.76068787 22.8125 10.10742188 C22.81537018 11.09276161 22.81537018 11.09276161 22.81829834 12.0980072 C22.81965727 13.48404321 22.81598119 14.87009207 22.80761719 16.25610352 C22.79689572 18.38066049 22.80753041 20.50437524 22.8203125 22.62890625 C22.81899119 23.97591333 22.81642938 25.32291988 22.8125 26.66992188 C22.81024414 27.89718994 22.80798828 29.12445801 22.80566406 30.38891602 C22.546875 33.32226562 22.546875 33.32226562 20.546875 35.32226562 C15.98585502 35.72213684 11.41059261 35.65128954 6.83398438 35.63793945 C4.5555041 35.6347776 2.27831979 35.6582408 0 35.68359375 C-1.44270669 35.6858665 -2.88541688 35.68657035 -4.328125 35.68554688 C-6.30425781 35.69001831 -6.30425781 35.69001831 -8.3203125 35.69458008 C-9.35414063 35.57171631 -10.38796875 35.44885254 -11.453125 35.32226562 C-13.88656946 31.67209893 -13.71076754 29.88384338 -13.71875 25.53710938 C-13.72066345 24.88021622 -13.7225769 24.22332306 -13.72454834 23.54652405 C-13.72590727 22.16048804 -13.72223119 20.77443918 -13.71386719 19.38842773 C-13.70314572 17.26387076 -13.71378041 15.14015601 -13.7265625 13.015625 C-13.72524119 11.66861792 -13.72267938 10.32161137 -13.71875 8.97460938 C-13.71649414 7.74734131 -13.71423828 6.52007324 -13.71191406 5.25561523 C-13.06823131 -2.04046803 -5.66603813 0.02190195 0 0 Z " fill="#6419E5" transform="translate(358.453125,330.677734375)"/>
<path d="M0 0 C3.97765619 3.00749615 6.71510288 6.52567742 8.375 11.25 C8.436875 12.136875 8.49875 13.02375 8.5625 13.9375 C8.624375 14.68 8.68625 15.4225 8.75 16.1875 C9.04983258 22.33406788 8.1795002 26.88536747 4.5625 31.9375 C-0.75361882 36.99429595 -5.33398143 37.29654008 -12.421875 37.2109375 C-16.93041753 36.80213183 -18.90952857 35.80397679 -22.4375 32.9375 C-26.97983856 26.93213828 -28.43618948 20.31861879 -27.4375 12.9375 C-25.83632982 8.03346756 -23.71852101 3.32528541 -19.375 0.3125 C-13.38570929 -2.4588604 -6.14781296 -1.9002331 0 0 Z " fill="#F8F8F8" transform="translate(850.4375,587.0625)"/>
<path d="M0 0 C4.74599554 2.19045948 6.86917038 6.23214066 8.8984375 10.79296875 C10.92078136 16.89595311 10.35907325 22.68033773 7.90234375 28.5859375 C5.53456974 32.49934176 1.84101593 35.41347641 -2.22265625 37.4453125 C-8.96598499 38.17151713 -14.99195084 38.27475235 -20.59765625 34.1171875 C-24.84553297 29.74677587 -26.41777583 24.49893931 -26.78515625 18.5078125 C-26.46816266 11.50116118 -23.50577368 5.8425858 -18.72265625 0.8203125 C-12.7021198 -1.54489825 -6.27604239 -1.56625311 0 0 Z " fill="#F8F8F8" transform="translate(667.22265625,586.5546875)"/>
<path d="M0 0 C4.50665768 2.13473258 7.1741532 4.91822129 10 9 C11.14330513 12.42991538 11.20381651 15.1986416 11.25 18.8125 C11.27578125 20.01519531 11.3015625 21.21789062 11.328125 22.45703125 C10.90679725 27.00636777 9.60050615 30.28546288 6.46484375 33.64453125 C-0.01717927 38.60137238 -4.8995372 38.70052723 -13 38 C-17.972208 35.7319753 -20.3020298 32.69646664 -23 28 C-25.16704128 21.49887617 -24.76169772 14.02127651 -22.05859375 7.72265625 C-16.90929815 -0.65682478 -8.93599505 -0.78366826 0 0 Z " fill="#FAFAFA" transform="translate(1106,586)"/>
<path d="M0 0 C4.972208 2.2680247 7.3020298 5.30353336 10 10 C12.06185331 16.18555992 12.09729467 23.53739529 9.3125 29.5 C6.78195161 33.81628998 3.77108602 36.40963799 -1 38 C-6.56545491 38.48988853 -11.40680952 38.76814541 -16.5 36.3125 C-20.92954765 32.21516843 -23.80348153 29.04225701 -24.203125 22.85546875 C-24.21859375 21.64503906 -24.2340625 20.43460938 -24.25 19.1875 C-24.28867187 17.38345703 -24.28867187 17.38345703 -24.328125 15.54296875 C-23.90679725 10.99363223 -22.60050615 7.71453712 -19.46484375 4.35546875 C-12.98282073 -0.60137238 -8.1004628 -0.70052723 0 0 Z " fill="#F9F9F9" transform="translate(971,586)"/>
<path d="M0 0 C3.3 0 6.6 0 10 0 C14.05984459 10.79488478 17.96990016 21.64039202 21.75421143 32.53482056 C22.20944877 33.8441108 22.66627523 35.15284961 23.12469482 36.46102905 C23.77405509 38.31612137 24.41646122 40.17364345 25.05859375 42.03125 C25.43298584 43.10955078 25.80737793 44.18785156 26.19311523 45.29882812 C27 48 27 48 27 51 C24.36 51 21.72 51 19 51 C18.32739649 49.23141309 17.66211605 47.46003984 17 45.6875 C16.62875 44.70136719 16.2575 43.71523438 15.875 42.69921875 C15 40 15 40 15 37 C8.4 37 1.8 37 -5 37 C-5.66 39.97 -6.32 42.94 -7 46 C-7.61896629 47.68496378 -8.26117922 49.36403971 -9 51 C-11.64 51 -14.28 51 -17 51 C-16.38333795 47.61679219 -15.55293891 44.4544632 -14.41772461 41.2097168 C-14.09746811 40.28913986 -13.77721161 39.36856293 -13.44725037 38.42008972 C-12.93002159 36.94950859 -12.93002159 36.94950859 -12.40234375 35.44921875 C-12.04862198 34.43527542 -11.69490021 33.42133209 -11.33045959 32.37666321 C-10.20256907 29.1458505 -9.0700979 25.91666511 -7.9375 22.6875 C-7.17092122 20.49424641 -6.40464165 18.30088822 -5.63867188 16.10742188 C-3.76258149 10.7370623 -1.88238197 5.36815736 0 0 Z " fill="#F9F9F9" transform="translate(545,573)"/>
<path d="M0 0 C2.31 0 4.62 0 7 0 C7.33 1.32 7.66 2.64 8 4 C8.928125 3.01 8.928125 3.01 9.875 2 C14.22823122 -0.78606798 17.95623024 -0.97335908 23 0 C25.50496783 1.42788107 26.9861291 2.8801359 29 5 C29.763125 4.175 30.52625 3.35 31.3125 2.5 C35.09153967 -0.64919973 38.64779506 -0.70575626 43.43359375 -0.50390625 C47.15112304 0.22601959 48.80666562 2.00244302 51 5 C51.495 5.495 51.495 5.495 52 6 C52.0883967 8.3756852 52.11530305 10.72208674 52.09765625 13.09765625 C52.0962413 13.80651474 52.09482635 14.51537323 52.09336853 15.24571228 C52.08775443 17.51801712 52.07519963 19.79022475 52.0625 22.0625 C52.05748681 23.59960796 52.05292359 25.13671745 52.04882812 26.67382812 C52.03778042 30.44925642 52.02050641 34.22461171 52 38 C49.69 38 47.38 38 45 38 C44.9906543 37.20303711 44.98130859 36.40607422 44.97167969 35.58496094 C44.91798502 31.97267825 44.83433392 28.36169179 44.75 24.75 C44.73582031 23.49574219 44.72164062 22.24148438 44.70703125 20.94921875 C44.67480469 19.74394531 44.64257812 18.53867187 44.609375 17.296875 C44.58842773 16.18666992 44.56748047 15.07646484 44.54589844 13.93261719 C43.88176353 10.36482267 42.9057244 9.12775267 40 7 C36.37350049 6.91083846 36.37350049 6.91083846 33 8 C30.67547376 11.48678936 30.70226266 13.06967571 30.5859375 17.19921875 C30.54726563 18.40771484 30.50859375 19.61621094 30.46875 20.86132812 C30.42234375 22.7552832 30.42234375 22.7552832 30.375 24.6875 C30.33632813 25.96173828 30.29765625 27.23597656 30.2578125 28.54882812 C30.16342314 31.69907292 30.0778417 34.84930991 30 38 C27.36 38 24.72 38 22 38 C21.98541748 37.16750732 21.97083496 36.33501465 21.95581055 35.47729492 C21.8947137 32.38510347 21.82055444 29.29357918 21.73754883 26.2019043 C21.68798681 24.2070937 21.65348867 22.21192743 21.61914062 20.21679688 C21.5659668 18.33637695 21.5659668 18.33637695 21.51171875 16.41796875 C21.48553467 15.26063232 21.45935059 14.1032959 21.43237305 12.91088867 C21.22217986 10.0226322 21.22217986 10.0226322 19.68676758 8.09887695 C17.84675887 6.68158552 17.84675887 6.68158552 14.5 7 C10.92716212 7.64592214 10.92716212 7.64592214 9.31323242 10.19018555 C7.847266 13.32679227 7.57669741 15.50880086 7.48828125 18.95703125 C7.45283203 20.06884766 7.41738281 21.18066406 7.38085938 22.32617188 C7.35830078 23.47666016 7.33574219 24.62714844 7.3125 25.8125 C7.27833984 26.98232422 7.24417969 28.15214844 7.20898438 29.35742188 C7.12667684 32.23818554 7.05746822 35.11865138 7 38 C4.69 38 2.38 38 0 38 C0 25.46 0 12.92 0 0 Z " fill="#FAFAFA" transform="translate(684,586)"/>
<path d="M0 0 C1.31419922 -0.01224609 2.62839844 -0.02449219 3.98242188 -0.03710938 C5.23474609 -0.03904297 6.48707031 -0.04097656 7.77734375 -0.04296875 C8.93355225 -0.04707764 10.08976074 -0.05118652 11.28100586 -0.05541992 C14.0625 0.1875 14.0625 0.1875 16.0625 2.1875 C16.54765227 6.29294819 16.43289996 10.43166357 16.4375 14.5625 C16.46199219 15.71234375 16.48648437 16.8621875 16.51171875 18.046875 C16.51751953 19.70589844 16.51751953 19.70589844 16.5234375 21.3984375 C16.53165527 22.41212402 16.53987305 23.42581055 16.54833984 24.47021484 C15.92248872 27.97057814 14.93255432 29.12273012 12.0625 31.1875 C9.45288086 31.67333984 9.45288086 31.67333984 6.52734375 31.6484375 C5.47095703 31.64457031 4.41457031 31.64070313 3.32617188 31.63671875 C1.6797168 31.59998047 1.6797168 31.59998047 0 31.5625 C-1.10150391 31.56121094 -2.20300781 31.55992187 -3.33789062 31.55859375 C-11.51574146 31.46867236 -11.51574146 31.46867236 -14.9375 29.1875 C-15.29394531 26.40600586 -15.29394531 26.40600586 -15.265625 22.90234375 C-15.26046875 21.65001953 -15.2553125 20.39769531 -15.25 19.10742188 C-15.229375 17.79322266 -15.20875 16.47902344 -15.1875 15.125 C-15.18234375 13.80693359 -15.1771875 12.48886719 -15.171875 11.13085938 C-15.06443345 -1.90314366 -12.4217536 0.00607421 0 0 Z " fill="#6419E4" transform="translate(408.9375,302.8125)"/>
<path d="M0 0 C4.29 0 8.58 0 13 0 C13 24.09 13 48.18 13 73 C4 72 4 72 0 71 C0 47.57 0 24.14 0 0 Z " fill="#0F1010" transform="translate(350,450)"/>
<path d="M0 0 C4.29 0 8.58 0 13 0 C13 23.43 13 46.86 13 71 C6.565 71.99 6.565 71.99 0 73 C0 48.91 0 24.82 0 0 Z " fill="#10100F" transform="translate(316,450)"/>
<path d="M0 0 C0.98396507 0.00424484 0.98396507 0.00424484 1.98780823 0.00857544 C4.05587034 0.01965266 6.12347798 0.04473187 8.19140625 0.0703125 C9.6048114 0.08035848 11.01822342 0.08948148 12.43164062 0.09765625 C15.87254019 0.11955066 19.31317877 0.15399199 22.75390625 0.1953125 C22.82294217 8.53775866 21.34584727 14.45067048 15.52734375 20.65234375 C9.09655761 26.24741098 2.36564554 26.63819885 -5.9140625 26.62890625 C-10.91714797 25.97785996 -14.18395116 24.37228131 -17.55859375 20.6328125 C-20.36593868 16.57775872 -20.81862628 14.18452452 -20.24609375 9.1953125 C-17.91763874 5.05398895 -15.61237066 2.66065851 -11.07421875 1.11499023 C-7.21737866 0.18841392 -3.95731154 -0.03396834 0 0 Z " fill="#0F0F0F" transform="translate(885.24609375,481.8046875)"/>
<path d="M0 0 C4.34906354 2.78340066 7.10046227 6.22955532 9.0625 11 C9.375 14 9.375 14 9.0625 16 C6.4225 16 3.7825 16 1.0625 16 C0.44375 14.6078125 0.44375 14.6078125 -0.1875 13.1875 C-2.49854487 8.97809685 -4.43451732 7.50099423 -8.9375 6 C-14.15231396 5.60642913 -17.62580816 5.93390803 -21.9375 9 C-26.53061967 14.41789039 -26.53628786 20.82175603 -26.32421875 27.64453125 C-25.66761084 33.34176555 -23.97290953 37.08432045 -19.8125 41 C-14.53488389 42.83569256 -9.19507515 42.91263676 -4 40.8125 C-1.76388131 39.08215176 -1.76388131 39.08215176 -0.625 36.3125 C1.0625 34 1.0625 34 3.0234375 33.6796875 C5.0392755 33.68676062 7.05338752 33.83531865 9.0625 34 C8.81516173 39.07043456 7.09623502 41.66934034 3.92578125 45.38671875 C-0.86225741 49.53233713 -5.62074687 50.55713436 -11.8125 50.5 C-12.87368042 50.49250732 -12.87368042 50.49250732 -13.95629883 50.48486328 C-19.88112234 50.28680002 -23.67788886 49.07582081 -27.9375 45 C-28.865625 44.113125 -29.79375 43.22625 -30.75 42.3125 C-35.37374899 35.31082295 -37.07014189 27.31862547 -35.9375 19 C-34.25843851 12.38305338 -32.08016963 6.5836838 -26.9375 2 C-18.69843292 -2.84026225 -8.76299018 -4.29415632 0 0 Z " fill="#F8F8F8" transform="translate(1066.9375,574)"/>
<path d="M0 0 C3.01138698 1.91020816 4.64241473 3.96675288 5.8828125 7.24609375 C6.10986328 10.45410156 6.10986328 10.45410156 6.078125 14.19921875 C6.0752951 14.85944031 6.07246521 15.51966187 6.06954956 16.19989014 C6.05839665 18.29881272 6.03330196 20.39730117 6.0078125 22.49609375 C5.99777634 23.9231709 5.9886516 25.35025477 5.98046875 26.77734375 C5.95847361 30.26706703 5.92397786 33.75653798 5.8828125 37.24609375 C3.5728125 37.24609375 1.2628125 37.24609375 -1.1171875 37.24609375 C-1.4471875 35.92609375 -1.7771875 34.60609375 -2.1171875 33.24609375 C-2.5503125 33.72046875 -2.9834375 34.19484375 -3.4296875 34.68359375 C-6.90581224 37.90222777 -11.12547351 37.57703097 -15.60546875 37.53125 C-20.05222366 37.02640846 -22.77898338 34.87521181 -25.5546875 31.49609375 C-26.45202896 27.90672792 -26.26339397 24.71923745 -25.1171875 21.24609375 C-20.51750787 15.67806051 -15.08856305 14.95872325 -8.1171875 14.24609375 C-4.4296875 14.12109375 -4.4296875 14.12109375 -2.1171875 14.24609375 C-2.9776014 9.9137966 -2.9776014 9.9137966 -5.1171875 6.24609375 C-8.49119328 5.82883697 -8.49119328 5.82883697 -12.1171875 6.24609375 C-12.7565625 6.90609375 -13.3959375 7.56609375 -14.0546875 8.24609375 C-16.48509725 10.60285472 -17.1098088 10.51891251 -20.3671875 10.49609375 C-21.6046875 10.41359375 -22.8421875 10.33109375 -24.1171875 10.24609375 C-22.91364331 5.83309837 -21.68470069 3.16496818 -18.1171875 0.24609375 C-12.62880577 -1.58336683 -5.5066974 -1.96087195 0 0 Z " fill="#F8F8F8" transform="translate(769.1171875,586.75390625)"/>
<path d="M0 0 C4.90635285 2.06583278 6.93875005 4.96096045 9.3359375 9.51171875 C10 12 10 12 10 21 C1.42 21 -7.16 21 -16 21 C-13.97384121 28.77277038 -13.97384121 28.77277038 -10 31 C-5.9554075 31.39232613 -5.9554075 31.39232613 -2 31 C-1.01 29.9790625 -1.01 29.9790625 0 28.9375 C2 27 2 27 4.015625 26.95703125 C6.02330056 27.22027542 8.01446126 27.60289225 10 28 C8.14286978 31.78568853 6.84342204 34.34634792 3.5 36.9375 C-2.76873288 38.8405082 -10.00760565 39.4682662 -16 36.375 C-20.32073527 32.95441791 -22.94238023 29.41659473 -24 24 C-24.67750888 16.84728328 -24.34305254 10.92107485 -20 5 C-13.76852883 -0.78636609 -8.27720919 -0.69564852 0 0 Z " fill="#F9F9F9" transform="translate(1212,586)"/>
<path d="M0 0 C16.83 0 33.66 0 51 0 C51 4.62 51 9.24 51 14 C34.17 14 17.34 14 0 14 C0 9.38 0 4.76 0 0 Z " fill="#0F1010" transform="translate(314,417)"/>
<path d="M0 0 C2.64 0 5.28 0 8 0 C8.33 1.65 8.66 3.3 9 5 C9.33 4.01 9.66 3.02 10 2 C14.48645173 -1.03166126 19.81252387 -0.63111727 25 0 C28.66955419 2.09688811 30.48617666 4.10304545 32 8 C32.22705078 11.20800781 32.22705078 11.20800781 32.1953125 14.953125 C32.1924826 15.61334656 32.18965271 16.27356812 32.18673706 16.95379639 C32.17558415 19.05271897 32.15048946 21.15120742 32.125 23.25 C32.11496384 24.67707715 32.1058391 26.10416102 32.09765625 27.53125 C32.07566111 31.02097328 32.04116536 34.51044423 32 38 C29.36 38 26.72 38 24 38 C23.9906543 37.16750732 23.98130859 36.33501465 23.97167969 35.47729492 C23.92763634 32.38497711 23.86601225 29.29365054 23.79248047 26.2019043 C23.75041351 24.20710869 23.72862136 22.21191918 23.70703125 20.21679688 C23.67480469 18.96318359 23.64257812 17.70957031 23.609375 16.41796875 C23.58842773 15.26063232 23.56748047 14.1032959 23.54589844 12.91088867 C23.25968559 9.92626154 23.25968559 9.92626154 21.18457031 8.0949707 C17.82418298 6.41064603 15.5507265 7.03162005 12 8 C8.84461809 11.14759988 8.59511249 13.71941045 8.48828125 18.078125 C8.45283203 19.23828125 8.41738281 20.3984375 8.38085938 21.59375 C8.34702148 23.40359375 8.34702148 23.40359375 8.3125 25.25 C8.27833984 26.47203125 8.24417969 27.6940625 8.20898438 28.953125 C8.12652838 31.96865846 8.05736799 34.98390194 8 38 C5.36 38 2.72 38 0 38 C0 25.46 0 12.92 0 0 Z " fill="#F5F5F5" transform="translate(866,586)"/>
<path d="M0 0 C2.31 0 4.62 0 7 0 C7.33 1.32 7.66 2.64 8 4 C8.598125 3.34 9.19625 2.68 9.8125 2 C14.46641479 -0.9201034 18.64110865 -0.77790358 24 0 C27.53207912 1.67309011 29.35174674 2.73916823 31.14013672 6.2175293 C32.16958718 9.54877486 32.22602413 12.34626106 32.1953125 15.83203125 C32.18886719 17.12431641 32.18242188 18.41660156 32.17578125 19.74804688 C32.15907327 21.1028673 32.14214342 22.45768501 32.125 23.8125 C32.11496003 25.18684251 32.10583596 26.56119203 32.09765625 27.93554688 C32.07411242 31.29054317 32.04122567 34.64518199 32 38 C29.36 38 26.72 38 24 38 C23.9906543 37.20303711 23.98130859 36.40607422 23.97167969 35.58496094 C23.91798502 31.97267825 23.83433392 28.36169179 23.75 24.75 C23.73582031 23.49574219 23.72164062 22.24148438 23.70703125 20.94921875 C23.67480469 19.74394531 23.64257812 18.53867187 23.609375 17.296875 C23.58842773 16.18666992 23.56748047 15.07646484 23.54589844 13.93261719 C22.88201828 10.36619125 21.90242512 9.12913707 19 7 C15.61043429 7.05946607 13.14547058 7.20284022 10.31713867 9.17114258 C8.4052043 11.82587852 8.5644936 13.9525727 8.48828125 17.19921875 C8.45283203 18.40771484 8.41738281 19.61621094 8.38085938 20.86132812 C8.34702148 22.7552832 8.34702148 22.7552832 8.3125 24.6875 C8.27833984 25.96173828 8.24417969 27.23597656 8.20898438 28.54882812 C8.12639216 31.69913103 8.05727665 34.84915157 8 38 C5.36 38 2.72 38 0 38 C0 25.46 0 12.92 0 0 Z " fill="#F6F6F6" transform="translate(1125,586)"/>
<path d="M0 0 C2.64 0 5.28 0 8 0 C8.33 1.32 8.66 2.64 9 4 C9.598125 3.34 10.19625 2.68 10.8125 2 C15.44942925 -0.90944581 19.66055828 -0.93029804 25 0 C28.16993851 1.66806473 30.37482717 3.74965433 32 7 C32.08586809 9.32416296 32.10711043 11.65083307 32.09765625 13.9765625 C32.0962413 14.66181 32.09482635 15.3470575 32.09336853 16.05307007 C32.08776675 18.24375761 32.07521406 20.4343433 32.0625 22.625 C32.05748522 24.10937352 32.05292228 25.59374865 32.04882812 27.078125 C32.03779677 30.71878315 32.02053099 34.35938164 32 38 C29.69 38 27.38 38 25 38 C24.97494385 37.23333008 24.9498877 36.46666016 24.92407227 35.67675781 C24.80798577 32.20100717 24.68531634 28.72551908 24.5625 25.25 C24.52318359 24.0434375 24.48386719 22.836875 24.44335938 21.59375 C24.40146484 20.43359375 24.35957031 19.2734375 24.31640625 18.078125 C24.27974854 17.00981445 24.24309082 15.94150391 24.20532227 14.84082031 C24.03013091 12.41688848 23.68801513 10.32113288 23 8 C21.61135566 7.69443774 20.21318736 7.43199192 18.8125 7.1875 C18.03519531 7.03667969 17.25789063 6.88585937 16.45703125 6.73046875 C13.57585358 7.04652799 11.94888145 7.88109227 9.99731445 10.0456543 C7.64684336 14.65165701 8.21196088 20.25996993 8.1875 25.3125 C8.16236328 26.53001953 8.13722656 27.74753906 8.11132812 29.00195312 C8.05251099 32.00162687 8.01618961 34.99984298 8 38 C5.36 38 2.72 38 0 38 C0 25.46 0 12.92 0 0 Z " fill="#F5F5F5" transform="translate(1229,586)"/>
<path d="M0 0 C2.64 0 5.28 0 8 0 C8.01458252 0.80219971 8.02916504 1.60439941 8.04418945 2.4309082 C8.11856719 6.05859699 8.21526243 9.68535504 8.3125 13.3125 C8.33505859 14.57513672 8.35761719 15.83777344 8.38085938 17.13867188 C8.41630859 18.34716797 8.45175781 19.55566406 8.48828125 20.80078125 C8.51446533 21.91622314 8.54064941 23.03166504 8.56762695 24.1809082 C8.77201611 27.00602706 8.77201611 27.00602706 10.41088867 28.86254883 C13.32675999 30.94966581 16.57612608 30.53609717 20 30 C22.67431489 28.18836733 22.95920359 27.12238923 24 24 C24.14889747 22.15533558 24.2479101 20.30642725 24.31640625 18.45703125 C24.35830078 17.38388672 24.40019531 16.31074219 24.44335938 15.20507812 C24.48267578 14.08552734 24.52199219 12.96597656 24.5625 11.8125 C24.60568359 10.68134766 24.64886719 9.55019531 24.69335938 8.38476562 C24.79949099 5.58996646 24.90154385 2.79507838 25 0 C27.31 0 29.62 0 32 0 C32 12.54 32 25.08 32 38 C29.69 38 27.38 38 25 38 C24.67 36.68 24.34 35.36 24 34 C23.21625 34.66 22.4325 35.32 21.625 36 C17.34964054 38.82660021 12.95092642 38.93231731 8 38 C4.65837552 36.32918776 2.55720972 34.10193395 0.85595703 30.73754883 C-0.15917302 27.49092782 -0.22636461 24.78692502 -0.1953125 21.38671875 C-0.18886719 20.13955078 -0.18242188 18.89238281 -0.17578125 17.60742188 C-0.15902344 16.31384766 -0.14226563 15.02027344 -0.125 13.6875 C-0.11597656 12.37458984 -0.10695313 11.06167969 -0.09765625 9.70898438 C-0.07411797 6.47247087 -0.0412352 3.23632851 0 0 Z " fill="#F8F8F8" transform="translate(577,586)"/>
<path d="M0 0 C0.91007813 0.00902344 1.82015625 0.01804687 2.7578125 0.02734375 C3.80582031 0.04474609 3.80582031 0.04474609 4.875 0.0625 C4.875 2.0425 4.875 4.0225 4.875 6.0625 C3.1734375 6.2790625 3.1734375 6.2790625 1.4375 6.5 C-1.93277201 6.67421478 -1.93277201 6.67421478 -3.125 8.0625 C-3.49260731 10.39067964 -3.82741581 12.7243385 -4.125 15.0625 C-1.155 15.0625 1.815 15.0625 4.875 15.0625 C4.875 17.0425 4.875 19.0225 4.875 21.0625 C1.905 21.0625 -1.065 21.0625 -4.125 21.0625 C-4.125 31.6225 -4.125 42.1825 -4.125 53.0625 C-6.765 53.0625 -9.405 53.0625 -12.125 53.0625 C-12.125 42.5025 -12.125 31.9425 -12.125 21.0625 C-14.105 21.0625 -16.085 21.0625 -18.125 21.0625 C-18.125 19.0825 -18.125 17.1025 -18.125 15.0625 C-16.145 15.0625 -14.165 15.0625 -12.125 15.0625 C-12.228125 13.86625 -12.33125 12.67 -12.4375 11.4375 C-12.45570512 8.02100513 -11.93631276 6.26011597 -9.75 3.625 C-6.22523 0.18415309 -4.78279477 -0.06131788 0 0 Z " fill="#F3F3F3" transform="translate(939.125,570.9375)"/>
<path d="M0 0 C2.64 0 5.28 0 8 0 C8 3.3 8 6.6 8 10 C10.31 10 12.62 10 15 10 C15 11.98 15 13.96 15 16 C12.69 16 10.38 16 8 16 C8.33 23.92 8.66 31.84 9 40 C10.98 40.66 12.96 41.32 15 42 C15 43.98 15 45.96 15 48 C7.00348432 48.6271777 7.00348432 48.6271777 3 46.125 C-0.21065068 42.71368365 -0.11997712 40.71528679 -0.09765625 36.1171875 C-0.09443359 34.95058594 -0.09121094 33.78398438 -0.08789062 32.58203125 C-0.07951172 31.35871094 -0.07113281 30.13539063 -0.0625 28.875 C-0.05798828 27.64394531 -0.05347656 26.41289063 -0.04882812 25.14453125 C-0.0370133 22.09630608 -0.02054028 19.04817686 0 16 C-1.98 16 -3.96 16 -6 16 C-6 14.02 -6 12.04 -6 10 C-4.02 10 -2.04 10 0 10 C0 6.7 0 3.4 0 0 Z " fill="#F6F5F5" transform="translate(1168,576)"/>
<path d="M0 0 C2.64 0 5.28 0 8 0 C8 3.3 8 6.6 8 10 C10.31 10 12.62 10 15 10 C15 11.98 15 13.96 15 16 C12.69 16 10.38 16 8 16 C8.33 23.92 8.66 31.84 9 40 C10.98 40.66 12.96 41.32 15 42 C15 43.98 15 45.96 15 48 C7.00348432 48.6271777 7.00348432 48.6271777 3 46.125 C-0.21065068 42.71368365 -0.11997712 40.71528679 -0.09765625 36.1171875 C-0.09443359 34.95058594 -0.09121094 33.78398438 -0.08789062 32.58203125 C-0.07951172 31.35871094 -0.07113281 30.13539063 -0.0625 28.875 C-0.05798828 27.64394531 -0.05347656 26.41289063 -0.04882812 25.14453125 C-0.0370133 22.09630608 -0.02054028 19.04817686 0 16 C-1.98 16 -3.96 16 -6 16 C-6 14.02 -6 12.04 -6 10 C-4.02 10 -2.04 10 0 10 C0 6.7 0 3.4 0 0 Z " fill="#F8F8F8" transform="translate(621,576)"/>
<path d="M0 0 C2.64 0 5.28 0 8 0 C8 2.97 8 5.94 8 9 C10.31 9 12.62 9 15 9 C15 10.98 15 12.96 15 15 C12.69 15 10.38 15 8 15 C8.13844847 18.79197449 8.28700744 22.5834859 8.4375 26.375 C8.47681641 27.45523438 8.51613281 28.53546875 8.55664062 29.6484375 C8.61948242 31.1953125 8.61948242 31.1953125 8.68359375 32.7734375 C8.72025146 33.72653809 8.75690918 34.67963867 8.79467773 35.66162109 C8.85763465 38.02132349 8.85763465 38.02132349 10 40 C13.02934491 40.65772428 13.02934491 40.65772428 16 41 C16 42.98 16 44.96 16 47 C7.0247473 47.62739631 7.0247473 47.62739631 2.9375 45.125 C-0.1914871 41.69320769 -0.11982263 39.68346093 -0.09765625 35.1171875 C-0.09443359 33.95058594 -0.09121094 32.78398438 -0.08789062 31.58203125 C-0.07951172 30.35871094 -0.07113281 29.13539063 -0.0625 27.875 C-0.05798828 26.64394531 -0.05347656 25.41289063 -0.04882812 24.14453125 C-0.0370133 21.09630608 -0.02054028 18.04817686 0 15 C-1.98 15 -3.96 15 -6 15 C-6 13.02 -6 11.04 -6 9 C-4.02 9 -2.04 9 0 9 C0 6.03 0 3.06 0 0 Z " fill="#F9F9F9" transform="translate(786,577)"/>
<path d="M0 0 C2.31 0 4.62 0 7 0 C7 3.3 7 6.6 7 10 C9.64 10 12.28 10 15 10 C15 11.98 15 13.96 15 16 C12.36 16 9.72 16 7 16 C7.33 24.25 7.66 32.5 8 41 C11.465 41.495 11.465 41.495 15 42 C15 43.98 15 45.96 15 48 C5.38818565 48.56540084 5.38818565 48.56540084 1 45 C-0.38308781 42.23382437 -0.11210196 39.98982 -0.09765625 36.8984375 C-0.09443359 35.68671875 -0.09121094 34.475 -0.08789062 33.2265625 C-0.07951172 31.95554687 -0.07113281 30.68453125 -0.0625 29.375 C-0.05798828 28.09625 -0.05347656 26.8175 -0.04882812 25.5 C-0.03701203 22.33328708 -0.02053815 19.16666644 0 16 C-1.98 16 -3.96 16 -6 16 C-6 14.02 -6 12.04 -6 10 C-4.02 10 -2.04 10 0 10 C0 6.7 0 3.4 0 0 Z " fill="#FAFAFA" transform="translate(1273,576)"/>
<path d="M0 0 C3.94237155 2.36542293 5.85997429 4.54353587 7 9 C7.50527635 14.45698461 6.59712879 18.17676083 4 23 C1.62173482 25.54228347 0.47852182 25.95015398 -3 26.3125 C-5.99543954 26.00047505 -7.57857577 25.75344513 -10 24 C-13.8887199 18.57877965 -13.81201471 13.46119232 -13 7 C-10.41256125 0.53747693 -6.66867715 -0.56514213 0 0 Z " fill="#0F0F0F" transform="translate(1103,592)"/>
<path d="M0 0 C3.49973881 2.22710652 5.44403005 4.18580819 7 8 C7.7121481 13.01815989 7.52912753 16.94174495 5.25 21.5 C1.86245353 25.26394052 1.86245353 25.26394052 -1 26 C-5.31661426 25.9229176 -7.28212702 25.71787298 -10.375 22.625 C-13.33476207 17.84384588 -13.54037513 13.48094771 -13 8 C-10.36168322 1.9318714 -6.71867767 -0.9598111 0 0 Z " fill="#101010" transform="translate(662,592)"/>
<path d="M0 0 C3.49878971 2.22650255 5.43921576 4.18862064 7 8 C7.58771413 12.83135585 7.54928443 17.75119262 5 22 C2.34712774 24.72656315 0.76984123 25.87169313 -3 26.5 C-6.80087683 25.86652053 -8.35695656 24.78987918 -11 22 C-13.03903014 17.63064971 -13.42728458 13.78558726 -13 9 C-10.44916375 2.36782574 -7.39392542 -1.05627506 0 0 Z " fill="#101010" transform="translate(844,592)"/>
<path d="M0 0 C3.79536479 1.72516581 5.4832343 3.1507857 7 7 C7.55842522 11.86627694 7.64589251 16.44985798 5.75 21 C2.96881556 24.1784965 1.33871216 25.80061734 -2.9375 26.4375 C-6.70560958 25.89919863 -8.29844289 24.62436976 -11 22 C-12.46123786 19.07752427 -12.2477615 16.44146161 -12.3125 13.1875 C-12.34988281 11.96417969 -12.38726563 10.74085938 -12.42578125 9.48046875 C-11.92980695 5.4262201 -10.84899719 3.85956861 -8 1 C-5.17998673 -0.41000664 -3.12992745 -0.24548451 0 0 Z " fill="#100F10" transform="translate(967,592)"/>
<path d="M0 0 C2.31 0 4.62 0 7 0 C7.33 0.99 7.66 1.98 8 3 C8.495 2.505 8.99 2.01 9.5 1.5 C13.11630158 -0.66978095 15.82231616 -0.20888419 20 0 C20 1.98 20 3.96 20 6 C19.38511719 6.09796875 18.77023437 6.1959375 18.13671875 6.296875 C16.92435547 6.52117188 16.92435547 6.52117188 15.6875 6.75 C14.88699219 6.88921875 14.08648438 7.0284375 13.26171875 7.171875 C10.33001735 8.24531316 9.59469654 9.33022715 8 12 C7.49815261 14.89560969 7.49815261 14.89560969 7.48828125 18.078125 C7.45283203 19.23828125 7.41738281 20.3984375 7.38085938 21.59375 C7.35830078 22.8003125 7.33574219 24.006875 7.3125 25.25 C7.27833984 26.47203125 7.24417969 27.6940625 7.20898438 28.953125 C7.12652838 31.96865846 7.05736799 34.98390194 7 38 C4.69 38 2.38 38 0 38 C0 25.46 0 12.92 0 0 Z " fill="#FDFDFD" transform="translate(990,586)"/>
<path d="M0 0 C0 3.63464315 -0.62548537 4.02840882 -3.0625 6.57421875 C-3.69414062 7.24130859 -4.32578125 7.90839844 -4.9765625 8.59570312 C-5.64429688 9.28599609 -6.31203125 9.97628906 -7 10.6875 C-7.66773438 11.38939453 -8.33546875 12.09128906 -9.0234375 12.81445312 C-10.67577321 14.54940562 -12.3347315 16.27747207 -14 18 C-17.75460899 16.26790002 -19.83963441 14.20001517 -22.5625 11.0625 C-26.16935634 6.92587532 -26.16935634 6.92587532 -30 3 C-29.67 2.01 -29.34 1.02 -29 0 C-19.67417033 -2.24247049 -9.42506889 -1.32281669 0 0 Z " fill="#0E0F10" transform="translate(354,541)"/>
<path d="M0 0 C1.72959961 -0.00386719 1.72959961 -0.00386719 3.49414062 -0.0078125 C5.30881836 0.00378906 5.30881836 0.00378906 7.16015625 0.015625 C8.36607422 0.00789063 9.57199219 0.00015625 10.81445312 -0.0078125 C11.96880859 -0.00523437 13.12316406 -0.00265625 14.3125 0 C15.37331787 0.00225586 16.43413574 0.00451172 17.52709961 0.00683594 C20.22265625 0.265625 20.22265625 0.265625 23.22265625 2.265625 C23.55502779 4.70484034 23.69103162 6.89948738 23.70263672 9.34570312 C23.72515251 10.43859901 23.72515251 10.43859901 23.74812317 11.55357361 C23.79370149 13.96801891 23.8174473 16.38211127 23.83984375 18.796875 C23.86429943 20.47075666 23.88963016 22.14462574 23.915802 23.81848145 C23.96723765 27.32897407 24.00786472 30.83938618 24.04101562 34.35009766 C24.08446121 38.85673753 24.15484473 43.36248001 24.23333549 47.86862946 C24.29055817 51.32567939 24.33342552 54.78279235 24.37192154 58.24009705 C24.39219136 59.90199332 24.4169946 61.56384052 24.44634628 63.2256012 C24.48519341 65.54570528 24.50472258 67.86517954 24.51904297 70.18554688 C24.5344664 70.87651962 24.54988983 71.56749237 24.56578064 72.27940369 C24.56564331 74.19128418 24.56564331 74.19128418 24.22265625 77.265625 C22.73765625 78.255625 22.73765625 78.255625 21.22265625 79.265625 C21.22265625 53.855625 21.22265625 28.445625 21.22265625 2.265625 C12.64265625 2.265625 4.06265625 2.265625 -4.77734375 2.265625 C-6.49359714 3.98187839 -5.92057637 6.24272828 -5.93556213 8.58692932 C-5.94535095 9.74104309 -5.95513977 10.89515686 -5.96522522 12.08424377 C-5.97098068 13.36169968 -5.97673615 14.63915558 -5.98266602 15.95532227 C-5.99223939 17.30520939 -6.00224914 18.65509348 -6.01266479 20.00497437 C-6.03977858 23.68039843 -6.06075296 27.35583542 -6.08066678 31.0313046 C-6.10248655 34.86838229 -6.12989479 38.70541985 -6.15672302 42.54246521 C-6.20670429 49.81330807 -6.25162288 57.08417314 -6.29474539 64.35505956 C-6.34407142 72.63064702 -6.39900668 80.90619423 -6.45442498 89.18174279 C-6.56832841 106.20966634 -6.67514915 123.23762723 -6.77734375 140.265625 C-7.10734375 140.265625 -7.43734375 140.265625 -7.77734375 140.265625 C-7.82401588 122.30721135 -7.85930906 104.34881339 -7.88096809 86.39035225 C-7.891291 78.05236919 -7.90537065 69.71442376 -7.92822266 61.37646484 C-7.94812555 54.11109292 -7.9610528 46.84574823 -7.96552074 39.5803498 C-7.9681334 35.73157306 -7.97429519 31.88287428 -7.98880386 28.03412247 C-8.00233888 24.41446568 -8.00657472 20.79491926 -8.00355911 17.17523956 C-8.00437509 15.20752051 -8.01515802 13.23981358 -8.02618408 11.27212524 C-8.02343475 10.10822266 -8.02068542 8.94432007 -8.01785278 7.74514771 C-8.01969637 6.72933184 -8.02153996 5.71351597 -8.02343941 4.6669178 C-7.50206841 -0.4203903 -4.31162081 0.00917854 0 0 Z " fill="#050505" transform="translate(964.77734375,384.734375)"/>
<path d="M0 0 C2.64 0 5.28 0 8 0 C8 12.54 8 25.08 8 38 C5.36 38 2.72 38 0 38 C0 25.46 0 12.92 0 0 Z " fill="#F1F0F1" transform="translate(808,586)"/>
<path d="M0 0 C4.29 0 8.58 0 13 0 C13 23.43 13 46.86 13 71 C6.565 71.99 6.565 71.99 0 73 C0 48.91 0 24.82 0 0 Z M2 2 C0.58302807 4.83394387 0.88054071 7.20873738 0.88647461 10.37744141 C0.88632858 11.03122269 0.88618256 11.68500397 0.8860321 12.3585968 C0.88672964 14.52295227 0.8945146 16.68722204 0.90234375 18.8515625 C0.90420849 20.35086012 0.90563213 21.85015834 0.90663147 23.34945679 C0.91045221 27.29831622 0.92027872 31.24713896 0.93133545 35.19598389 C0.94155909 39.22440087 0.94613113 43.25282378 0.95117188 47.28125 C0.96190138 55.18751685 0.9789725 63.09375386 1 71 C5.95 70.505 5.95 70.505 11 70 C11.15359569 61.28164878 11.30177736 52.56322756 11.4429636 43.84466648 C11.50868731 39.79670216 11.57630653 35.74878767 11.64819336 31.70092773 C11.71744285 27.79770613 11.78179731 23.89443223 11.84269524 19.9910717 C11.86685196 18.49863672 11.89280067 17.00622968 11.92053413 15.51385689 C11.95894837 13.43058776 11.99110544 11.34731213 12.02172852 9.26391602 C12.04171402 8.07588882 12.06169952 6.88786163 12.08229065 5.66383362 C12.30680776 3.07849569 12.30680776 3.07849569 11 2 C9.48071962 1.92820036 7.95832518 1.91607993 6.4375 1.9375 C5.19806641 1.95103516 5.19806641 1.95103516 3.93359375 1.96484375 C2.97646484 1.98224609 2.97646484 1.98224609 2 2 Z " fill="#050F02" transform="translate(316,450)"/>
<path d="M0 0 C2.03043415 3.70032391 3.30910463 7.63141057 4.625 11.625 C4.85445312 12.305625 5.08390625 12.98625 5.3203125 13.6875 C7 18.74655878 7 18.74655878 7 21 C2.38 21 -2.24 21 -7 21 C-5.13825211 13.73918325 -2.94513033 6.89190398 0 0 Z " fill="#101010" transform="translate(550,582)"/>
<path d="M0 0 C-0.33 0.99 -0.66 1.98 -1 3 C-2.65 2.67 -4.3 2.34 -6 2 C-2.25 0 -2.25 0 0 0 Z M-0.15771484 3.83935547 C2.51382749 6.51452515 2.57820441 8.40684007 2.59213257 12.10794067 C2.5694632 12.92052338 2.54679382 13.73310608 2.5234375 14.5703125 C2.51873444 15.40714569 2.51403137 16.24397888 2.50918579 17.10617065 C2.48782351 19.77994881 2.4311829 22.45175062 2.375 25.125 C2.35849663 26.93357517 2.34414759 28.74217137 2.33203125 30.55078125 C2.19542611 43.80457389 2.19542611 43.80457389 1 45 C-0.49738124 45.0979057 -1.99942892 45.12974864 -3.5 45.125 C-4.3146875 45.12757813 -5.129375 45.13015625 -5.96875 45.1328125 C-8 45 -8 45 -9 44 C-9.08865208 41.1156618 -9.11521296 38.25537842 -9.09765625 35.37109375 C-9.0962413 34.50686295 -9.09482635 33.64263214 -9.09336853 32.75221252 C-9.08775239 29.98060708 -9.07519719 27.2090812 -9.0625 24.4375 C-9.05748708 22.5631522 -9.05292381 20.68880315 -9.04882812 18.81445312 C-9.03777772 14.20960456 -9.0205023 9.60481579 -9 5 C-5.60191185 3.49851919 -3.77947712 2.76981255 -0.15771484 3.83935547 Z M-8 6 C-8 18.54 -8 31.08 -8 44 C-5.36 44 -2.72 44 0 44 C0 31.46 0 18.92 0 6 C-2.64 6 -5.28 6 -8 6 Z " fill="#020202" transform="translate(816,580)"/>
<path d="M0 0 C0.3125 3.25 0.3125 3.25 0 7 C-2.73850106 10.23641034 -4.3524209 10.92047274 -8.5625 11.4375 C-12.07967359 10.98985972 -13.4837345 10.41561488 -16 8 C-15.25 3.25 -15.25 3.25 -13 1 C-8.64197143 -0.01349502 -4.46062661 -0.08921253 0 0 Z " fill="#101011" transform="translate(767,607)"/>
<path d="M0 0 C3.72846224 2.91792697 4.84010827 4.3604331 6 9 C-0.27 9 -6.54 9 -13 9 C-11 3 -11 3 -9.3125 1.125 C-5.95063538 -0.51050171 -3.69096778 -0.51803057 0 0 Z " fill="#0E0D0E" transform="translate(1209,592)"/>
<path d="M0 0 C2.64 0 5.28 0 8 0 C8 0.66 8 1.32 8 2 C6.35 2.33 4.7 2.66 3 3 C3 9.6 3 16.2 3 23 C4.65 23 6.3 23 8 23 C8 23.99 8 24.98 8 26 C5.6568787 25.74438677 3.32156597 25.40729228 1 25 C-0.27861615 22.44276771 -0.11336609 20.63262898 -0.09765625 17.7734375 C-0.09443359 16.7421875 -0.09121094 15.7109375 -0.08789062 14.6484375 C-0.07951172 13.56820312 -0.07113281 12.48796875 -0.0625 11.375 C-0.05798828 10.28703125 -0.05347656 9.1990625 -0.04882812 8.078125 C-0.03701776 5.38536211 -0.02054778 2.69270812 0 0 Z " fill="#161616" transform="translate(1280,592)"/>
<path d="M0 0 C2.97 0 5.94 0 9 0 C9 0.33 9 0.66 9 1 C6.36 1 3.72 1 1 1 C1 4.3 1 7.6 1 11 C-0.98 11 -2.96 11 -5 11 C-5 12.98 -5 14.96 -5 17 C-3.02 17 -1.04 17 1 17 C1 25.25 1 33.5 1 42 C-1.13604308 38.79593538 -1.24208908 38.00399253 -1.1953125 34.33203125 C-1.18886719 33.43935547 -1.18242188 32.54667969 -1.17578125 31.62695312 C-1.15902344 30.69818359 -1.14226563 29.76941406 -1.125 28.8125 C-1.11597656 27.87212891 -1.10695313 26.93175781 -1.09765625 25.96289062 C-1.07409056 23.64167032 -1.04119116 21.32096356 -1 19 C-2.65 18.67 -4.3 18.34 -6 18 C-6 15.36 -6 12.72 -6 10 C-4.35 10 -2.7 10 -1 10 C-1.020625 8.72125 -1.04125 7.4425 -1.0625 6.125 C-1.125 2.25 -1.125 2.25 0 0 Z " fill="#040404" transform="translate(620,575)"/>
<path d="M0 0 C3.3 0 6.6 0 10 0 C10 23.43 10 46.86 10 71 C9.67 71 9.34 71 9 71 C8.67 48.56 8.34 26.12 8 3 C5.03 2.67 2.06 2.34 -1 2 C-0.67 1.34 -0.34 0.68 0 0 Z " fill="#050F02" transform="translate(353,450)"/>
<path d="M0 0 C2 2 2 2 2.24291992 4.78149414 C2.23675659 6.51580688 2.23675659 6.51580688 2.23046875 8.28515625 C2.22853516 9.53748047 2.22660156 10.78980469 2.22460938 12.08007812 C2.21236328 13.39427734 2.20011719 14.70847656 2.1875 16.0625 C2.18685547 17.38056641 2.18621094 18.69863281 2.18554688 20.05664062 C2.14009123 29.85990877 2.14009123 29.85990877 1 31 C-0.92578125 31.16796875 -0.92578125 31.16796875 -3.3125 31.1875 C-4.09238281 31.20167969 -4.87226562 31.21585938 -5.67578125 31.23046875 C-8.2032668 30.97984413 -9.81718031 30.26373772 -12 29 C-10.35 27.68 -8.7 26.36 -7 25 C-7 26.65 -7 28.3 -7 30 C-4.69 30 -2.38 30 0 30 C0 20.1 0 10.2 0 0 Z " fill="#020202" transform="translate(775,594)"/>
<path d="M0 0 C3.125 0.375 3.125 0.375 6 1 C6.625 3.875 6.625 3.875 7 7 C5 9 5 9 1.9375 9.1875 C-1 9 -1 9 -2 8 C-2.1875 5.0625 -2.1875 5.0625 -2 2 C-1.34 1.34 -0.68 0.68 0 0 Z " fill="#F6F6F6" transform="translate(810,571)"/>
<path d="M0 0 C0 9.24 0 18.48 0 28 C-2 26 -2 26 -2.22705078 23.56982422 C-2.21657715 22.5748291 -2.20610352 21.57983398 -2.1953125 20.5546875 C-2.18886719 19.47832031 -2.18242188 18.40195312 -2.17578125 17.29296875 C-2.15902344 16.16503906 -2.14226562 15.03710938 -2.125 13.875 C-2.11597656 12.73933594 -2.10695313 11.60367188 -2.09765625 10.43359375 C-2.07403098 7.62218701 -2.04109013 4.81119702 -2 2 C-3.32 1.67 -4.64 1.34 -6 1 C-3.92446352 0.4465236 -2.15634036 0 0 0 Z " fill="#302F30" transform="translate(1273,592)"/>
<path d="M0 0 C2.97 0 5.94 0 9 0 C8.67 0.99 8.34 1.98 8 3 C6.02 3 4.04 3 2 3 C2 12.57 2 22.14 2 32 C1.67 32 1.34 32 1 32 C0.67 21.44 0.34 10.88 0 0 Z " fill="#181818" transform="translate(935,592)"/>
<path d="M0 0 C3.94237155 2.36542293 5.85997429 4.54353587 7 9 C7.25 12.6875 7.25 12.6875 7 16 C6.34 16.66 5.68 17.32 5 18 C4.96261719 17.33613281 4.92523437 16.67226563 4.88671875 15.98828125 C4.57562937 8.84998592 4.57562937 8.84998592 1 3 C-1.71484062 2.68289771 -4.2533938 2.86920923 -7 3 C-7.66 2.34 -8.32 1.68 -9 1 C-5.89951072 -0.55024464 -3.42105782 -0.28992015 0 0 Z " fill="#212121" transform="translate(1103,592)"/>
<path d="M0 0 C1.32 0 2.64 0 4 0 C4.1953125 6.0546875 4.1953125 6.0546875 4 8 C2 10 2 10 -1.125 10.125 C-2.548125 10.063125 -2.548125 10.063125 -4 10 C-4 9.01 -4 8.02 -4 7 C-2.02 7 -0.04 7 2 7 C2 5.02 2 3.04 2 1 C1.34 0.67 0.68 0.34 0 0 Z " fill="#161616" transform="translate(634,585)"/>
<path d="M0 0 C3.96 0 7.92 0 12 0 C12 0.99 12 1.98 12 3 C8.04 3 4.08 3 0 3 C0 2.01 0 1.02 0 0 Z " fill="#232223" transform="translate(1049,624)"/>
<path d="M0 0 C3 3 3 3 3.29296875 5.48046875 C3.25816406 6.37378906 3.22335937 7.26710938 3.1875 8.1875 C3.16042969 9.08855469 3.13335938 9.98960937 3.10546875 10.91796875 C3.07066406 11.60503906 3.03585937 12.29210937 3 13 C2.34 13 1.68 13 1 13 C0.67 13.66 0.34 14.32 0 15 C0 10.05 0 5.1 0 0 Z " fill="#1D1D1E" transform="translate(1117,597)"/>
<path d="M0 0 C0.99 0.66 1.98 1.32 3 2 C-0.14930893 3.04976964 -2.38814456 3.10131595 -5.6875 3.0625 C-6.68136719 3.05347656 -7.67523437 3.04445313 -8.69921875 3.03515625 C-9.83810547 3.01775391 -9.83810547 3.01775391 -11 3 C-8.91323879 -1.17352242 -4.08749408 -0.2189729 0 0 Z M-13 3 C-12.34 3.33 -11.68 3.66 -11 4 C-11.99 4 -12.98 4 -14 4 C-13.67 3.67 -13.34 3.34 -13 3 Z " fill="#1C1C1C" transform="translate(1058,579)"/>
<path d="M0 0 C0.99 0.33 1.98 0.66 3 1 C3.9140625 3.3984375 3.9140625 3.3984375 4.625 6.375 C4.86476563 7.35210938 5.10453125 8.32921875 5.3515625 9.3359375 C5.56554687 10.21507812 5.77953125 11.09421875 6 12 C6.33 12.99 6.66 13.98 7 15 C6.34 15.66 5.68 16.32 5 17 C4.16301614 14.54285453 3.33027576 12.08441143 2.5 9.625 C2.26152344 8.92632813 2.02304687 8.22765625 1.77734375 7.5078125 C0 2.2265625 0 2.2265625 0 0 Z " fill="#171616" transform="translate(567,607)"/>
<path d="M0 0 C6.4 -0.49230769 6.4 -0.49230769 9.4375 2 C10.2109375 2.99 10.2109375 2.99 11 4 C10.01 4.495 10.01 4.495 9 5 C9 4.34 9 3.68 9 3 C5.7 3 2.4 3 -1 3 C-0.67 2.01 -0.34 1.02 0 0 Z " fill="#171717" transform="translate(1202,592)"/>
<path d="M0 0 C2.28062828 3.42094242 2.21925007 4.68187222 2.125 8.6875 C2.10695313 9.68136719 2.08890625 10.67523437 2.0703125 11.69921875 C2.03550781 12.83810547 2.03550781 12.83810547 2 14 C1.01 13.67 0.02 13.34 -1 13 C-1.02686553 11.02090602 -1.04633375 9.04171029 -1.0625 7.0625 C-1.07410156 5.96035156 -1.08570313 4.85820313 -1.09765625 3.72265625 C-1 1 -1 1 0 0 Z " fill="#161616" transform="translate(1222,594)"/>
<path d="M0 0 C0 3 0 3 -1.1875 4.625 C-3.46157033 6.3501568 -5.18794735 6.59827819 -8 7 C-8.928125 7.185625 -9.85625 7.37125 -10.8125 7.5625 C-11.534375 7.706875 -12.25625 7.85125 -13 8 C-10.20375042 5.81302498 -7.36692128 4.00847187 -4.25 2.3125 C-3.45078125 1.87550781 -2.6515625 1.43851563 -1.828125 0.98828125 C-1.22484375 0.66214844 -0.6215625 0.33601562 0 0 Z " fill="#6D1BEC" transform="translate(386,578)"/>
<path d="M0 0 C0.99 0 1.98 0 3 0 C3.1875 2.875 3.1875 2.875 3 6 C0 8 0 8 -3.1875 7.625 C-4.115625 7.41875 -5.04375 7.2125 -6 7 C-6 6.67 -6 6.34 -6 6 C-4.02 6 -2.04 6 0 6 C0 4.02 0 2.04 0 0 Z " fill="#1F1E1F" transform="translate(1183,586)"/>
<path d="M0 0 C0 0.66 0 1.32 0 2 C-4.455 2.495 -4.455 2.495 -9 3 C-9 2.01 -9 1.02 -9 0 C-2.25 -1.125 -2.25 -1.125 0 0 Z " fill="#1E1E1E" transform="translate(763,624)"/>
<path d="M0 0 C0.99 0.33 1.98 0.66 3 1 C2.01 3.97 1.02 6.94 0 10 C-0.66 9.67 -1.32 9.34 -2 9 C-1.855625 8.443125 -1.71125 7.88625 -1.5625 7.3125 C-0.97230872 4.88615805 -0.476571 2.45093655 0 0 Z " fill="#161515" transform="translate(537,589)"/>
<path d="M0 0 C1.62490954 -0.02698189 3.24994633 -0.04638757 4.875 -0.0625 C5.77992188 -0.07410156 6.68484375 -0.08570313 7.6171875 -0.09765625 C10 0 10 0 12 1 C11.67 2.65 11.34 4.3 11 6 C9 3 9 3 9 1 C6.03 1 3.06 1 0 1 C0 0.67 0 0.34 0 0 Z " fill="#3A393A" transform="translate(546,572)"/>
<path d="M0 0 C0.66 0.33 1.32 0.66 2 1 C1.01 1.66 0.02 2.32 -1 3 C-0.67 2.01 -0.34 1.02 0 0 Z M-2 3 C-1.34 3.33 -0.68 3.66 0 4 C0 5.32 0 6.64 0 8 C-0.66 8 -1.32 8 -2 8 C-2.33 8.66 -2.66 9.32 -3 10 C-2.67 7.69 -2.34 5.38 -2 3 Z " fill="#191819" transform="translate(1096,444)"/>
<path d="M0 0 C-2.17424117 2.50037734 -3.73045798 3.43628586 -7 4 C-7 3.01 -7 2.02 -7 1 C-4.53721199 -0.231394 -2.7204945 -0.07159196 0 0 Z " fill="#161616" transform="translate(602,499)"/>
</svg>
